<?xml version="1.0" encoding="UTF-8"?>
<!DOCTYPE svg PUBLIC "-//W3C//DTD SVG 1.1//EN" "http://www.w3.org/Graphics/SVG/1.1/DTD/svg11.dtd">
<svg xmlns="http://www.w3.org/2000/svg" version="1.1" width="612px" height="408px" style="shape-rendering:geometricPrecision; text-rendering:geometricPrecision; image-rendering:optimizeQuality; fill-rule:evenodd; clip-rule:evenodd" xmlns:xlink="http://www.w3.org/1999/xlink">
<g><path style="opacity:0.113" fill="#444345" d="M 281.5,132.5 C 281.5,132.833 281.5,133.167 281.5,133.5C 281.5,147.167 281.5,160.833 281.5,174.5C 281.167,174.5 280.833,174.5 280.5,174.5C 279.833,174.5 279.5,174.167 279.5,173.5C 280.167,159.833 280.833,146.167 281.5,132.5 Z"/></g>
<g><path style="opacity:1" fill="#d0d0d2" d="M 332.5,134.5 C 340.339,134.203 342.672,137.536 339.5,144.5C 334.573,147.3 331.24,145.967 329.5,140.5C 329.984,138.199 330.984,136.199 332.5,134.5 Z"/></g>
<g><path style="opacity:0.322" fill="#7b7a7b" d="M 281.5,133.5 C 281.5,133.167 281.5,132.833 281.5,132.5C 284.833,132.5 288.167,132.5 291.5,132.5C 291.83,148.009 291.496,163.342 290.5,178.5C 290.5,163.5 290.5,148.5 290.5,133.5C 287.5,133.5 284.5,133.5 281.5,133.5 Z"/></g>
<g><path style="opacity:1" fill="#dcdcdd" d="M 379.5,151.5 C 382.167,151.5 384.833,151.5 387.5,151.5C 387.5,162.167 387.5,172.833 387.5,183.5C 385.124,190.535 380.124,193.869 372.5,193.5C 365.766,193.966 360.433,191.466 356.5,186C 358.933,184.368 361.433,182.868 364,181.5C 366.505,183.023 369.171,184.023 372,184.5C 376.533,184.302 378.533,181.968 378,177.5C 368.838,182.002 361.838,179.668 357,170.5C 355.245,153.909 362.245,147.909 378,152.5C 378.383,151.944 378.883,151.611 379.5,151.5 Z M 369.5,159.5 C 377.744,159.228 380.078,162.728 376.5,170C 367.426,171.226 365.093,167.726 369.5,159.5 Z"/></g>
<g><path style="opacity:0.99" fill="#d8d8d9" d="M 439.5,152.5 C 443.099,151.656 446.766,151.323 450.5,151.5C 451.594,152.582 452.927,153.248 454.5,153.5C 460.39,149.6 466.223,149.6 472,153.5C 472.667,154.833 473.333,156.167 474,157.5C 474.5,164.492 474.666,171.492 474.5,178.5C 470.894,178.789 467.394,178.456 464,177.5C 463.889,172.015 463.556,166.348 463,160.5C 459.555,157.444 457.222,158.11 456,162.5C 455.501,167.823 455.334,173.156 455.5,178.5C 452.167,178.5 448.833,178.5 445.5,178.5C 445.666,172.824 445.499,167.157 445,161.5C 442.512,157.648 440.179,157.648 438,161.5C 437.501,167.157 437.334,172.824 437.5,178.5C 434.167,178.5 430.833,178.5 427.5,178.5C 427.5,169.167 427.5,159.833 427.5,150.5C 431.773,150.081 435.773,150.748 439.5,152.5 Z"/></g>
<g><path style="opacity:0.51" fill="#848487" d="M 450.5,151.5 C 446.766,151.323 443.099,151.656 439.5,152.5C 439.611,151.883 439.944,151.383 440.5,151C 444.027,150.192 447.36,150.359 450.5,151.5 Z"/></g>
<g><path style="opacity:1" fill="#d8d9d8" d="M 514.5,150.5 C 518.846,150.334 523.179,150.501 527.5,151C 528.428,151.388 529.095,152.055 529.5,153C 528.722,155.39 527.555,157.557 526,159.5C 523.221,157.203 520.388,157.036 517.5,159C 520.417,160.528 523.417,161.861 526.5,163C 531.436,167.344 531.769,172.01 527.5,177C 519.865,181.663 512.865,180.996 506.5,175C 507.484,173.343 508.484,171.677 509.5,170C 522.483,172.236 522.816,170.569 510.5,165C 506.699,161.388 506.532,157.555 510,153.5C 511.652,152.601 513.152,151.601 514.5,150.5 Z"/></g>
<g><path style="opacity:0.553" fill="#8b8a8b" d="M 330.5,151.5 C 333.625,150.521 336.958,150.187 340.5,150.5C 340.827,160.015 340.494,169.348 339.5,178.5C 339.5,169.5 339.5,160.5 339.5,151.5C 336.5,151.5 333.5,151.5 330.5,151.5 Z"/></g>
<g><path style="opacity:0.574" fill="#959495" d="M 379.5,151.5 C 382.287,150.523 385.287,150.19 388.5,150.5C 388.397,153.219 388.731,155.885 389.5,158.5C 388.89,166.983 388.223,175.316 387.5,183.5C 387.5,172.833 387.5,162.167 387.5,151.5C 384.833,151.5 382.167,151.5 379.5,151.5 Z"/></g>
<g><path style="opacity:0.998" fill="#e3e3e3" d="M 330.5,151.5 C 333.5,151.5 336.5,151.5 339.5,151.5C 339.5,160.5 339.5,169.5 339.5,178.5C 335.97,179.011 332.804,178.344 330,176.5C 330.405,168.226 330.572,159.893 330.5,151.5 Z"/></g>
<g><path style="opacity:0.997" fill="#dddddd" d="M 281.5,133.5 C 284.5,133.5 287.5,133.5 290.5,133.5C 290.5,148.5 290.5,163.5 290.5,178.5C 283.668,179.244 277.001,179.077 270.5,178C 268.798,175.765 267.798,173.265 267.5,170.5C 264.854,169.836 262.021,169.502 259,169.5C 255.748,169.519 252.915,170.186 250.5,171.5C 249.545,173.746 248.878,176.079 248.5,178.5C 245.552,178.223 242.719,178.556 240,179.5C 238.977,178.4 238.477,177.067 238.5,175.5C 242.95,161.649 248.283,148.149 254.5,135C 257.882,134.176 261.216,134.343 264.5,135.5C 269.547,148.244 274.547,160.911 279.5,173.5C 279.5,174.167 279.833,174.5 280.5,174.5C 280.833,175.833 281.167,175.833 281.5,174.5C 281.5,160.833 281.5,147.167 281.5,133.5 Z M 263.5,160.5 C 260.615,160.806 257.948,160.473 255.5,159.5C 256.935,156.289 258.102,152.955 259,149.5C 260.515,153.192 262.015,156.859 263.5,160.5 Z"/></g>
<g><path style="opacity:0.125" fill="#585858" d="M 255.5,159.5 C 257.948,160.473 260.615,160.806 263.5,160.5C 260.645,161.803 257.645,161.803 254.5,160.5C 254.624,159.893 254.957,159.56 255.5,159.5 Z"/></g>
<g><path style="opacity:0.282" fill="#8a8b8a" d="M 267.5,170.5 C 261.741,170.214 256.075,170.548 250.5,171.5C 252.915,170.186 255.748,169.519 259,169.5C 262.021,169.502 264.854,169.836 267.5,170.5 Z"/></g>
<g><path style="opacity:0.995" fill="#d6d6d6" d="M 399.5,150.5 C 404.109,149.974 408.443,150.641 412.5,152.5C 415.82,150.281 419.32,149.947 423,151.5C 423.5,160.494 423.666,169.494 423.5,178.5C 419.566,178.979 415.899,178.312 412.5,176.5C 404.607,181.828 397.774,180.495 392,172.5C 388.461,162.946 390.961,155.613 399.5,150.5 Z M 404.5,159.5 C 410.02,158.868 412.853,161.201 413,166.5C 410.675,170.51 407.341,171.51 403,169.5C 400.925,165.794 401.425,162.461 404.5,159.5 Z"/></g>
<g><path style="opacity:1" fill="#d8d8d9" d="M 485.5,150.5 C 498.396,148.262 505.062,153.595 505.5,166.5C 498.986,166.045 492.653,166.545 486.5,168C 487.476,170.142 489.143,171.308 491.5,171.5C 494.228,170.982 496.728,169.982 499,168.5C 500.567,169.856 502.4,170.523 504.5,170.5C 504.919,173.325 503.919,175.491 501.5,177C 490.713,182.405 482.213,179.905 476,169.5C 474.578,160.783 477.745,154.45 485.5,150.5 Z M 495.5,159.5 C 492.713,160.477 489.713,160.81 486.5,160.5C 489.122,156.91 492.122,156.576 495.5,159.5 Z"/></g>
<g><path style="opacity:0.384" fill="#6c6a6d" d="M 495.5,159.5 C 496.043,159.56 496.376,159.893 496.5,160.5C 493.02,161.806 489.687,161.806 486.5,160.5C 489.713,160.81 492.713,160.477 495.5,159.5 Z"/></g>
<g><path style="opacity:1" fill="#d5d5d5" d="M 316.5,132.5 C 319.833,132.5 323.167,132.5 326.5,132.5C 326.5,147.833 326.5,163.167 326.5,178.5C 323.881,178.232 321.381,178.565 319,179.5C 317.686,178.687 316.519,177.687 315.5,176.5C 308.217,182.044 301.717,181.044 296,173.5C 292.035,165.194 293.535,158.027 300.5,152C 302.702,150.978 305.035,150.478 307.5,150.5C 310.685,150.611 313.685,151.111 316.5,152C 315.827,145.641 315.827,139.141 316.5,132.5 Z M 307.5,159.5 C 312.093,158.418 315.093,160.085 316.5,164.5C 315.054,170.314 311.554,171.981 306,169.5C 304.532,165.995 305.032,162.661 307.5,159.5 Z"/></g>
<g><path style="opacity:0.4" fill="#808080" d="M 514.5,198.5 C 515.649,198.791 516.316,199.624 516.5,201C 516.613,202.699 515.947,203.866 514.5,204.5C 515.641,202.451 515.641,200.451 514.5,198.5 Z"/></g>
<g><path style="opacity:0.369" fill="#8e8e8e" d="M 342.5,205.5 C 341.791,206.404 340.791,206.737 339.5,206.5C 339.5,208.5 339.5,210.5 339.5,212.5C 339.5,210.5 339.5,208.5 339.5,206.5C 340.791,206.737 341.791,206.404 342.5,205.5 Z"/></g>
<g><path style="opacity:0.994" fill="#dad9da" d="M 352.5,222.5 C 352.281,223.675 352.614,224.675 353.5,225.5C 354.107,225.376 354.44,225.043 354.5,224.5C 355.5,224.5 356.5,224.5 357.5,224.5C 357.682,226.675 358.349,228.675 359.5,230.5C 356.359,234.435 352.359,235.435 347.5,233.5C 346.185,231.684 344.685,230.017 343,228.5C 342.501,223.511 342.334,218.511 342.5,213.5C 341.209,213.737 340.209,213.404 339.5,212.5C 339.5,210.5 339.5,208.5 339.5,206.5C 340.791,206.737 341.791,206.404 342.5,205.5C 342.5,202.167 342.5,198.833 342.5,195.5C 345.833,195.5 349.167,195.5 352.5,195.5C 352.5,198.833 352.5,202.167 352.5,205.5C 358.313,205.062 359.98,207.562 357.5,213C 355.744,213.202 354.078,213.702 352.5,214.5C 353.516,217.134 353.516,219.8 352.5,222.5 Z"/></g>
<g><path style="opacity:0.992" fill="#d9d9da" d="M 286.5,204.5 C 295.417,202.96 301.583,206.293 305,214.5C 305.851,217.053 305.518,219.386 304,221.5C 299.883,221.453 295.717,221.12 291.5,220.5C 283.976,221.382 283.976,223.049 291.5,225.5C 294.104,225.448 296.271,224.448 298,222.5C 300.155,223.579 302.155,224.913 304,226.5C 304.617,227.449 304.451,228.282 303.5,229C 292.713,237.468 283.547,235.968 276,224.5C 274.02,214.788 277.52,208.122 286.5,204.5 Z M 289.5,211.5 C 292.183,211.227 293.683,212.227 294,214.5C 291.38,215.923 288.88,215.757 286.5,214C 287.571,213.148 288.571,212.315 289.5,211.5 Z"/></g>
<g><path style="opacity:0.99" fill="#dbdbdb" d="M 336.5,211.5 C 336.5,218.5 336.5,225.5 336.5,232.5C 333.833,232.5 331.167,232.5 328.5,232.5C 328.821,226.974 328.488,221.64 327.5,216.5C 325.009,212.146 322.176,211.813 319,215.5C 317.696,221.423 317.196,227.423 317.5,233.5C 314.223,233.784 311.057,233.451 308,232.5C 307.5,223.506 307.334,214.506 307.5,205.5C 310.85,205.335 314.183,205.502 317.5,206C 318,206.5 318.5,207 319,207.5C 323.603,203.778 328.436,203.611 333.5,207C 335.141,208.129 336.141,209.629 336.5,211.5 Z"/></g>
<g><path style="opacity:0.997" fill="#dbdadb" d="M 381.5,206.5 C 384.5,206.5 387.5,206.5 390.5,206.5C 390.5,215.167 390.5,223.833 390.5,232.5C 386.929,233.952 383.429,233.619 380,231.5C 371.459,236.248 364.792,234.248 360,225.5C 357.565,208.454 364.732,202.12 381.5,206.5 Z M 372.5,213.5 C 380.482,213.304 382.815,216.804 379.5,224C 374.499,226.276 371.165,224.776 369.5,219.5C 370.513,217.473 371.513,215.473 372.5,213.5 Z"/></g>
<g><path style="opacity:1" fill="#bdbdbd" d="M 449.5,207.5 C 451.988,208.74 453.821,210.74 455,213.5C 455.81,217.358 455.643,221.024 454.5,224.5C 454.766,220.395 454.266,216.395 453,212.5C 452.586,212.957 452.086,213.291 451.5,213.5C 450.5,212 449.5,210.5 448.5,209C 448.57,208.235 448.903,207.735 449.5,207.5 Z"/></g>
<g><path style="opacity:1" fill="#d8d8d8" d="M 242.5,188.5 C 248.509,188.334 254.509,188.501 260.5,189C 270.325,191.476 273.825,197.642 271,207.5C 269.539,211.26 267.039,214.093 263.5,216C 267.633,221.036 272.133,225.869 277,230.5C 277.483,231.448 277.649,232.448 277.5,233.5C 273.154,233.666 268.821,233.499 264.5,233C 260.379,227.924 256.379,222.757 252.5,217.5C 252.571,222.23 252.404,227.23 252,232.5C 248.606,233.456 245.106,233.789 241.5,233.5C 241.184,218.422 241.517,203.422 242.5,188.5 Z M 255.5,197.5 C 259.748,198.588 261.248,201.255 260,205.5C 257.745,207.055 255.245,208.055 252.5,208.5C 252.5,204.833 252.5,201.167 252.5,197.5C 253.5,197.5 254.5,197.5 255.5,197.5 Z"/></g>
<g><path style="opacity:0.065" fill="#504f50" d="M 255.5,197.5 C 254.5,197.5 253.5,197.5 252.5,197.5C 252.5,201.167 252.5,204.833 252.5,208.5C 251.517,204.702 251.183,200.702 251.5,196.5C 253.099,196.232 254.432,196.566 255.5,197.5 Z"/></g>
<g><path style="opacity:0.587" fill="#a4a4a5" d="M 404.5,187.5 C 405.496,202.658 405.83,217.991 405.5,233.5C 402.167,233.5 398.833,233.5 395.5,233.5C 395.5,217.833 395.5,202.167 395.5,186.5C 398.713,186.19 401.713,186.523 404.5,187.5 Z"/></g>
<g><path style="opacity:1" fill="#eaeaea" d="M 404.5,187.5 C 404.5,202.5 404.5,217.5 404.5,232.5C 401.833,232.5 399.167,232.5 396.5,232.5C 396.5,217.5 396.5,202.5 396.5,187.5C 399.167,187.5 401.833,187.5 404.5,187.5 Z"/></g>
<g><path style="opacity:0.996" fill="#dadada" d="M 514.5,204.5 C 515.947,203.866 516.613,202.699 516.5,201C 516.316,199.624 515.649,198.791 514.5,198.5C 512.034,197.366 509.367,197.199 506.5,198C 505.663,199.011 505.33,200.178 505.5,201.5C 494.03,198.89 493.697,194.723 504.5,189C 513.318,186.444 520.152,188.944 525,196.5C 526.193,201.152 525.36,205.319 522.5,209C 530.34,218.925 528.673,226.925 517.5,233C 508.092,236.086 500.592,233.586 495,225.5C 494.333,224.5 494.333,223.5 495,222.5C 497.421,221.039 499.921,219.706 502.5,218.5C 504.04,220.387 505.707,222.22 507.5,224C 515.085,225.421 517.585,222.588 515,215.5C 513.211,213.771 511.044,213.104 508.5,213.5C 508.5,211.167 508.5,208.833 508.5,206.5C 510.898,206.741 512.898,206.074 514.5,204.5 Z"/></g>
<g><path style="opacity:0.371" fill="#888889" d="M 381.5,206.5 C 384.625,205.521 387.958,205.187 391.5,205.5C 391.827,214.682 391.493,223.682 390.5,232.5C 390.5,223.833 390.5,215.167 390.5,206.5C 387.5,206.5 384.5,206.5 381.5,206.5 Z"/></g>
<g><path style="opacity:0.994" fill="#d5d5d6" d="M 465.5,204.5 C 470.378,204.551 475.045,205.385 479.5,207C 478.36,209.458 476.86,211.625 475,213.5C 472.547,212.507 470.047,212.34 467.5,213C 471.682,214.952 475.515,217.452 479,220.5C 479.409,231.735 473.909,236.235 462.5,234C 455.664,231.836 454.831,228.336 460,223.5C 462.333,224.5 464.667,225.5 467,226.5C 467.75,225.874 468.584,225.374 469.5,225C 465.005,223.008 461.172,220.175 458,216.5C 457.245,213.697 457.578,211.03 459,208.5C 461.095,206.875 463.261,205.542 465.5,204.5 Z"/></g>
<g><path style="opacity:0.999" fill="#d8d8d8" d="M 449.5,207.5 C 448.903,207.735 448.57,208.235 448.5,209C 449.5,210.5 450.5,212 451.5,213.5C 452.086,213.291 452.586,212.957 453,212.5C 454.266,216.395 454.766,220.395 454.5,224.5C 451.539,231.622 446.206,234.789 438.5,234C 436.934,233.392 435.6,232.558 434.5,231.5C 434.44,230.957 434.107,230.624 433.5,230.5C 432.505,235.792 432.172,241.125 432.5,246.5C 429.5,246.5 426.5,246.5 423.5,246.5C 422.2,232.876 422.2,219.209 423.5,205.5C 426.518,205.335 429.518,205.502 432.5,206C 433,206.5 433.5,207 434,207.5C 439.278,203.527 444.445,203.527 449.5,207.5 Z M 436.5,213.5 C 442.873,213.368 445.373,216.368 444,222.5C 440.737,226.224 437.404,226.224 434,222.5C 432.927,218.9 433.76,215.9 436.5,213.5 Z"/></g>
<g><path style="opacity:0.322" fill="#605e61" d="M 352.5,222.5 C 353.167,223.167 353.833,223.833 354.5,224.5C 354.44,225.043 354.107,225.376 353.5,225.5C 352.614,224.675 352.281,223.675 352.5,222.5 Z"/></g>
<g><path style="opacity:0.369" fill="#8a8989" d="M 336.5,211.5 C 337.492,218.648 337.825,225.981 337.5,233.5C 334.167,233.5 330.833,233.5 327.5,233.5C 327.5,227.833 327.5,222.167 327.5,216.5C 328.488,221.64 328.821,226.974 328.5,232.5C 331.167,232.5 333.833,232.5 336.5,232.5C 336.5,225.5 336.5,218.5 336.5,211.5 Z"/></g>
<g><path style="opacity:0.365" fill="#818080" d="M 434.5,231.5 C 433.512,236.64 433.179,241.974 433.5,247.5C 429.958,247.813 426.625,247.479 423.5,246.5C 426.5,246.5 429.5,246.5 432.5,246.5C 432.172,241.125 432.505,235.792 433.5,230.5C 434.107,230.624 434.44,230.957 434.5,231.5 Z"/></g>
<g><path style="opacity:0.902" fill="#7b1313" d="M 52.5,128.5 C 105.55,128.398 158.716,128.732 212,129.5C 212.831,186.737 212.664,243.904 211.5,301C 154.459,301.829 97.4592,301.662 40.5,300.5C 39.5,243.504 39.1667,186.504 39.5,129.5C 44.0323,129.818 48.3656,129.485 52.5,128.5 Z"/></g>
<g><path style="opacity:1" fill="#c00909" d="M 124.5,251.5 C 124.833,251.5 125.167,251.5 125.5,251.5C 125.47,252.497 125.97,253.164 127,253.5C 129.612,250.511 131.612,250.845 133,254.5C 133.833,253.5 134.667,252.5 135.5,251.5C 136.327,253.162 137.493,254.495 139,255.5C 138.853,253.54 139.853,251.873 142,250.5C 144.174,251.799 145.341,253.799 145.5,256.5C 144.078,256.709 142.745,257.209 141.5,258C 142.696,258.654 142.696,259.154 141.5,259.5C 138.685,258.318 136.185,257.318 134,256.5C 131.943,257.958 129.777,258.792 127.5,259C 128.793,259.49 130.127,259.657 131.5,259.5C 131.649,260.552 131.483,261.552 131,262.5C 129.853,261.542 128.853,261.875 128,263.5C 127.383,262.551 127.549,261.718 128.5,261C 127.584,260.626 126.75,260.126 126,259.5C 123.369,265.111 122.035,264.778 122,258.5C 121.517,259.448 121.351,260.448 121.5,261.5C 120.5,261.5 119.5,261.5 118.5,261.5C 118.703,263.39 118.037,264.89 116.5,266C 114.485,266.424 112.651,267.258 111,268.5C 110.894,267.206 109.894,266.539 108,266.5C 105.759,266.68 105.259,267.513 106.5,269C 103.753,269.112 101.253,268.946 99,268.5C 98.6667,269.167 98.3333,269.833 98,270.5C 96.2494,269.826 94.5827,269.493 93,269.5C 93,267.5 93,265.5 93,263.5C 89.6667,264.833 86.3333,264.833 83,263.5C 80.9045,264.715 81.0712,265.549 83.5,266C 82.5,266.333 81.5,266.667 80.5,267C 81.6734,270.11 81.1734,270.277 79,267.5C 76.9117,273.622 75.4117,273.955 74.5,268.5C 72.8662,268.968 71.6995,269.968 71,271.5C 69.5431,265.042 68.8764,265.042 69,271.5C 68.2753,270.941 67.4419,270.608 66.5,270.5C 64.7892,272.201 62.7892,273.534 60.5,274.5C 61.3202,276.111 62.6536,276.778 64.5,276.5C 65.0325,281.797 65.8658,281.797 67,276.5C 68.3946,277.815 69.3946,277.481 70,275.5C 70.5,276.667 71.3333,277.5 72.5,278C 71.8333,278.333 71.1667,278.667 70.5,279C 72.158,279.725 72.658,280.892 72,282.5C 70.927,281.72 69.7604,281.887 68.5,283C 71.1506,283.153 73.4839,283.987 75.5,285.5C 74.6993,287.042 74.366,288.708 74.5,290.5C 72.4588,290.146 70.6255,290.146 69,290.5C 69.1953,288.874 69.1953,287.207 69,285.5C 66.0747,288.059 63.0747,288.059 60,285.5C 59.6667,285.833 59.3333,286.167 59,286.5C 58.4236,283.876 57.0902,283.209 55,284.5C 54.6667,283.833 54.3333,283.167 54,282.5C 53.5774,283.956 52.7441,284.456 51.5,284C 52.3706,280.663 53.3706,277.329 54.5,274C 54.1081,272.989 53.4415,272.489 52.5,272.5C 52.458,270.812 52.458,269.146 52.5,267.5C 51.3586,265.451 51.3586,263.451 52.5,261.5C 57.3134,262.259 61.3134,260.925 64.5,257.5C 64.8417,256.662 65.5084,256.328 66.5,256.5C 68.0174,256.489 69.1841,255.823 70,254.5C 70.8333,256.667 72.3333,258.167 74.5,259C 71.8908,259.943 69.8908,261.61 68.5,264C 70.859,264.208 73.0257,264.374 75,264.5C 75.3333,263.167 75.6667,261.833 76,260.5C 78.449,261.523 80.949,262.023 83.5,262C 82.8333,261 82.1667,260 81.5,259C 82.646,258.355 83.646,257.522 84.5,256.5C 85.7112,257.274 85.7112,258.107 84.5,259C 87.095,259.226 89.595,259.726 92,260.5C 94.934,257.58 96.434,258.247 96.5,262.5C 98.451,262.227 99.951,262.893 101,264.5C 101.863,262.251 101.363,260.418 99.5,259C 101.061,258.682 102.228,257.849 103,256.5C 103.915,257.328 104.581,258.328 105,259.5C 106.11,257.963 107.61,257.297 109.5,257.5C 110.306,253.748 112.472,252.748 116,254.5C 116.456,253.256 115.956,252.423 114.5,252C 115.833,249.176 117.333,249.343 119,252.5C 120.57,252.33 122.403,251.997 124.5,251.5 Z"/></g>
<g><path style="opacity:1" fill="#c3090a" d="M 145.5,256.5 C 145.5,258.167 145.5,259.833 145.5,261.5C 145.577,262.75 146.244,263.583 147.5,264C 145.598,264.199 144.098,265.033 143,266.5C 142.751,265.376 142.251,264.376 141.5,263.5C 139.471,262.371 139.137,262.871 140.5,265C 139.692,265.308 139.025,265.808 138.5,266.5C 142.021,267.15 143.021,268.983 141.5,272C 138.867,271.747 136.2,271.747 133.5,272C 135.617,274.513 134.951,276.513 131.5,278C 132.5,278.333 133.5,278.667 134.5,279C 134.736,280.117 134.736,281.284 134.5,282.5C 132.726,281.119 131.226,281.452 130,283.5C 128.195,281.68 126.028,280.514 123.5,280C 124.654,279.086 124.487,278.253 123,277.5C 122.5,278.5 122,279.5 121.5,280.5C 122.428,281.768 122.595,283.101 122,284.5C 121.667,283.833 121.333,283.167 121,282.5C 120.5,283.667 119.667,284.5 118.5,285C 119.328,285.915 120.328,286.581 121.5,287C 120.185,288.395 120.519,289.395 122.5,290C 119.397,291.772 116.397,291.772 113.5,290C 114.77,285.739 113.27,284.572 109,286.5C 106.848,284.676 104.348,284.343 101.5,285.5C 101.762,286.978 101.429,288.311 100.5,289.5C 99.5745,288.359 98.7412,288.359 98,289.5C 96.561,287.986 95.061,287.653 93.5,288.5C 93.1667,288.167 92.8333,287.833 92.5,287.5C 95.2764,285.721 94.9431,284.721 91.5,284.5C 88.9209,284.86 86.4209,285.526 84,286.5C 82.5936,285.586 81.0936,284.92 79.5,284.5C 79.2648,283.903 78.7648,283.57 78,283.5C 76.9889,284.056 76.1556,284.722 75.5,285.5C 73.4839,283.987 71.1506,283.153 68.5,283C 69.7604,281.887 70.927,281.72 72,282.5C 72.658,280.892 72.158,279.725 70.5,279C 71.1667,278.667 71.8333,278.333 72.5,278C 71.3333,277.5 70.5,276.667 70,275.5C 69.3946,277.481 68.3946,277.815 67,276.5C 65.8658,281.797 65.0325,281.797 64.5,276.5C 62.6536,276.778 61.3202,276.111 60.5,274.5C 62.7892,273.534 64.7892,272.201 66.5,270.5C 67.4419,270.608 68.2753,270.941 69,271.5C 68.8764,265.042 69.5431,265.042 71,271.5C 71.6995,269.968 72.8662,268.968 74.5,268.5C 75.4117,273.955 76.9117,273.622 79,267.5C 81.1734,270.277 81.6734,270.11 80.5,267C 81.5,266.667 82.5,266.333 83.5,266C 81.0712,265.549 80.9045,264.715 83,263.5C 86.3333,264.833 89.6667,264.833 93,263.5C 93,265.5 93,267.5 93,269.5C 94.5827,269.493 96.2494,269.826 98,270.5C 98.3333,269.833 98.6667,269.167 99,268.5C 101.253,268.946 103.753,269.112 106.5,269C 105.259,267.513 105.759,266.68 108,266.5C 109.894,266.539 110.894,267.206 111,268.5C 112.651,267.258 114.485,266.424 116.5,266C 118.037,264.89 118.703,263.39 118.5,261.5C 119.5,261.5 120.5,261.5 121.5,261.5C 121.351,260.448 121.517,259.448 122,258.5C 122.035,264.778 123.369,265.111 126,259.5C 126.75,260.126 127.584,260.626 128.5,261C 127.549,261.718 127.383,262.551 128,263.5C 128.853,261.875 129.853,261.542 131,262.5C 131.483,261.552 131.649,260.552 131.5,259.5C 130.127,259.657 128.793,259.49 127.5,259C 129.777,258.792 131.943,257.958 134,256.5C 136.185,257.318 138.685,258.318 141.5,259.5C 142.696,259.154 142.696,258.654 141.5,258C 142.745,257.209 144.078,256.709 145.5,256.5 Z"/></g>
<g><path style="opacity:1" fill="#bf0c09" d="M 200.5,261.5 C 202.126,264.121 201.459,265.954 198.5,267C 199.956,268.745 201.289,270.578 202.5,272.5C 203.167,271.5 203.833,270.5 204.5,269.5C 204.978,274.531 205.978,279.364 207.5,284C 207,285.5 206.5,287 206,288.5C 204.513,287.747 204.346,286.914 205.5,286C 203.619,282.061 202.453,277.894 202,273.5C 201.667,275.5 201.333,277.5 201,279.5C 200.667,278.167 200.333,276.833 200,275.5C 198.629,277.041 197.129,278.375 195.5,279.5C 196.348,277.519 196.848,275.519 197,273.5C 195.042,272.048 193.042,271.715 191,272.5C 190.308,271.975 189.808,271.308 189.5,270.5C 190.711,269.28 190.711,268.113 189.5,267C 189.996,265.004 190.996,263.337 192.5,262C 191.5,261.333 190.5,261.333 189.5,262C 186.987,264.791 184.487,265.291 182,263.5C 180.765,264.615 179.598,264.615 178.5,263.5C 176.566,263.901 175.066,264.901 174,266.5C 171.008,263.558 168.508,263.892 166.5,267.5C 164.744,266.593 162.911,266.593 161,267.5C 159.393,267.231 158.226,266.397 157.5,265C 156.101,264.405 154.768,264.572 153.5,265.5C 151.641,263.49 148.974,262.156 145.5,261.5C 145.5,259.833 145.5,258.167 145.5,256.5C 155.77,257.45 165.937,257.116 176,255.5C 179.697,255.363 182.197,257.029 183.5,260.5C 183.736,259.753 184.07,258.92 184.5,258C 181.937,257.237 181.937,256.737 184.5,256.5C 187.961,257.816 191.294,259.316 194.5,261C 196.473,261.495 198.473,261.662 200.5,261.5 Z"/></g>
<g><path style="opacity:1" fill="#540506" d="M 206.5,251.5 C 206.649,252.552 206.483,253.552 206,254.5C 203.905,256.125 201.739,257.458 199.5,258.5C 193.405,258.944 188.405,256.944 184.5,252.5C 188.319,254.44 192.319,255.773 196.5,256.5C 200.76,256.549 204.093,254.883 206.5,251.5 Z"/></g>
<g><path style="opacity:1" fill="#b90c0b" d="M 118.5,238.5 C 118.536,242.2 120.203,244.867 123.5,246.5C 123.5,246.833 123.5,247.167 123.5,247.5C 123.833,248.833 124.167,250.167 124.5,251.5C 122.403,251.997 120.57,252.33 119,252.5C 117.333,249.343 115.833,249.176 114.5,252C 115.956,252.423 116.456,253.256 116,254.5C 112.472,252.748 110.306,253.748 109.5,257.5C 107.61,257.297 106.11,257.963 105,259.5C 104.581,258.328 103.915,257.328 103,256.5C 102.228,257.849 101.061,258.682 99.5,259C 101.363,260.418 101.863,262.251 101,264.5C 99.951,262.893 98.451,262.227 96.5,262.5C 96.434,258.247 94.934,257.58 92,260.5C 89.595,259.726 87.095,259.226 84.5,259C 85.7112,258.107 85.7112,257.274 84.5,256.5C 83.646,257.522 82.646,258.355 81.5,259C 82.1667,260 82.8333,261 83.5,262C 80.949,262.023 78.449,261.523 76,260.5C 75.6667,261.833 75.3333,263.167 75,264.5C 73.0257,264.374 70.859,264.208 68.5,264C 69.8908,261.61 71.8908,259.943 74.5,259C 72.3333,258.167 70.8333,256.667 70,254.5C 69.1841,255.823 68.0174,256.489 66.5,256.5C 69.5,253.167 72.5,249.833 75.5,246.5C 76.5307,245.645 77.6974,244.978 79,244.5C 80.981,245.65 82.8143,246.984 84.5,248.5C 86.59,253.059 90.2567,255.392 95.5,255.5C 102.936,254.966 107.936,251.3 110.5,244.5C 111.117,244.389 111.617,244.056 112,243.5C 112.333,239.833 112.667,236.167 113,232.5C 114.331,234.996 116.164,236.996 118.5,238.5 Z"/></g>
<g><path style="opacity:1" fill="#210e10" d="M 179.5,243.5 C 180.833,246.833 183.167,249.167 186.5,250.5C 192.026,255.353 197.86,255.686 204,251.5C 205.122,249.593 205.955,247.593 206.5,245.5C 206.5,245.167 206.5,244.833 206.5,244.5C 206.833,244.5 207.167,244.5 207.5,244.5C 207.552,246.903 207.219,249.236 206.5,251.5C 204.093,254.883 200.76,256.549 196.5,256.5C 192.319,255.773 188.319,254.44 184.5,252.5C 183.415,250.413 181.749,249.08 179.5,248.5C 179.262,246.596 178.262,245.262 176.5,244.5C 174.185,241.811 172.185,242.145 170.5,245.5C 170.167,245.5 169.833,245.5 169.5,245.5C 170.038,243.883 170.371,242.216 170.5,240.5C 174.112,239.924 177.112,240.924 179.5,243.5 Z"/></g>
<g><path style="opacity:1" fill="#b30f0c" d="M 161.5,253.5 C 163.062,253.267 164.395,252.6 165.5,251.5C 168.596,250.24 170.929,248.074 172.5,245C 173.793,244.51 175.127,244.343 176.5,244.5C 178.262,245.262 179.262,246.596 179.5,248.5C 180.585,250.587 182.251,251.92 184.5,252.5C 188.405,256.944 193.405,258.944 199.5,258.5C 202.226,258.736 204.559,257.903 206.5,256C 207.337,254.989 207.67,253.822 207.5,252.5C 208.5,252.5 209.5,252.5 210.5,252.5C 210.5,265.5 210.5,278.5 210.5,291.5C 209.833,283.324 209.167,274.99 208.5,266.5C 207.205,264.672 206.205,262.672 205.5,260.5C 204.808,261.025 204.308,261.692 204,262.5C 202.989,261.663 201.822,261.33 200.5,261.5C 198.473,261.662 196.473,261.495 194.5,261C 191.294,259.316 187.961,257.816 184.5,256.5C 181.937,256.737 181.937,257.237 184.5,258C 184.07,258.92 183.736,259.753 183.5,260.5C 182.197,257.029 179.697,255.363 176,255.5C 165.937,257.116 155.77,257.45 145.5,256.5C 145.341,253.799 144.174,251.799 142,250.5C 139.853,251.873 138.853,253.54 139,255.5C 137.493,254.495 136.327,253.162 135.5,251.5C 134.667,252.5 133.833,253.5 133,254.5C 131.612,250.845 129.612,250.511 127,253.5C 125.97,253.164 125.47,252.497 125.5,251.5C 128.91,251.616 130.244,249.95 129.5,246.5C 131.032,245.323 132.532,243.989 134,242.5C 134.49,241.207 134.657,239.873 134.5,238.5C 136.823,236.678 138.989,234.678 141,232.5C 138.744,246.049 144.244,253.715 157.5,255.5C 159.333,255.415 160.666,254.748 161.5,253.5 Z"/></g>
<g><path style="opacity:1" fill="#6e0c0e" d="M 74.5,246.5 C 74.8333,246.5 75.1667,246.5 75.5,246.5C 72.5,249.833 69.5,253.167 66.5,256.5C 65.5084,256.328 64.8417,256.662 64.5,257.5C 63.8333,257.5 63.1667,257.5 62.5,257.5C 66.4741,253.862 70.4741,250.195 74.5,246.5 Z"/></g>
<g><path style="opacity:1" fill="#1d0d0c" d="M 74.5,244.5 C 74.5,245.167 74.5,245.833 74.5,246.5C 70.4741,250.195 66.4741,253.862 62.5,257.5C 61.8333,257.5 61.1667,257.5 60.5,257.5C 54.3885,258.905 50.0552,256.905 47.5,251.5C 47.5,250.5 47.5,249.5 47.5,248.5C 48.9335,249.833 50.2668,251.333 51.5,253C 55.5,253.667 59.5,253.667 63.5,253C 64.5707,252.148 65.5707,251.315 66.5,250.5C 69.4495,248.885 72.1162,246.885 74.5,244.5 Z"/></g>
<g><path style="opacity:1" fill="#8c1116" d="M 45.5,250.5 C 46.1667,250.833 46.8333,251.167 47.5,251.5C 50.0552,256.905 54.3885,258.905 60.5,257.5C 55.1327,259.206 49.966,258.539 45,255.5C 45.0187,253.893 45.1854,252.226 45.5,250.5 Z"/></g>
<g><path style="opacity:1" fill="#8a8782" d="M 47.5,246.5 C 53.2179,250.16 59.5513,251.494 66.5,250.5C 65.5707,251.315 64.5707,252.148 63.5,253C 59.5,253.667 55.5,253.667 51.5,253C 50.2668,251.333 48.9335,249.833 47.5,248.5C 47.5,247.833 47.5,247.167 47.5,246.5 Z"/></g>
<g><path style="opacity:1" fill="#291617" d="M 147.5,227.5 C 146.361,230.949 145.361,234.449 144.5,238C 147.022,248.767 153.689,252.6 164.5,249.5C 163.308,251.922 161.308,252.922 158.5,252.5C 153.867,251.954 149.534,250.621 145.5,248.5C 140.964,240.84 141.631,233.84 147.5,227.5 Z"/></g>
<g><path style="opacity:1" fill="#3b0a09" d="M 169.5,245.5 C 169.833,245.5 170.167,245.5 170.5,245.5C 168.833,247.5 167.167,249.5 165.5,251.5C 164.395,252.6 163.062,253.267 161.5,253.5C 155.27,254.199 149.937,252.532 145.5,248.5C 149.534,250.621 153.867,251.954 158.5,252.5C 161.308,252.922 163.308,251.922 164.5,249.5C 166.142,248.197 167.809,246.864 169.5,245.5 Z"/></g>
<g><path style="opacity:1" fill="#868082" d="M 206.5,245.5 C 205.955,247.593 205.122,249.593 204,251.5C 197.86,255.686 192.026,255.353 186.5,250.5C 193.925,251.563 200.592,249.896 206.5,245.5 Z"/></g>
<g><path style="opacity:1" fill="#7d0f13" d="M 129.5,246.5 C 130.244,249.95 128.91,251.616 125.5,251.5C 125.167,251.5 124.833,251.5 124.5,251.5C 124.167,250.167 123.833,248.833 123.5,247.5C 124.482,248.141 125.482,248.807 126.5,249.5C 127.288,248.23 128.288,247.23 129.5,246.5 Z"/></g>
<g><path style="opacity:1" fill="#530308" d="M 179.5,248.5 C 181.749,249.08 183.415,250.413 184.5,252.5C 182.251,251.92 180.585,250.587 179.5,248.5 Z"/></g>
<g><path style="opacity:1" fill="#741110" d="M 176.5,244.5 C 175.127,244.343 173.793,244.51 172.5,245C 170.929,248.074 168.596,250.24 165.5,251.5C 167.167,249.5 168.833,247.5 170.5,245.5C 172.185,242.145 174.185,241.811 176.5,244.5 Z"/></g>
<g><path style="opacity:1" fill="#2b1616" d="M 100.5,249.5 C 104.198,247.802 106.865,245.135 108.5,241.5C 108.5,242.167 108.5,242.833 108.5,243.5C 108.703,245.39 108.037,246.89 106.5,248C 99.3456,255.114 92.0123,255.281 84.5,248.5C 83.2562,244.588 80.5895,242.588 76.5,242.5C 76.7911,241.351 77.6244,240.684 79,240.5C 79.8333,240.667 80.6667,240.833 81.5,241C 83.7166,244.458 86.3832,247.458 89.5,250C 93.3575,250.81 97.0242,250.643 100.5,249.5 Z"/></g>
<g><path style="opacity:1" fill="#470e13" d="M 48.5,232.5 C 46.6208,237.09 46.2875,241.757 47.5,246.5C 47.5,247.167 47.5,247.833 47.5,248.5C 47.5,249.5 47.5,250.5 47.5,251.5C 46.8333,251.167 46.1667,250.833 45.5,250.5C 44.4604,246.22 44.2938,241.887 45,237.5C 45.6972,235.416 46.8639,233.749 48.5,232.5 Z"/></g>
<g><path style="opacity:1" fill="#770b11" d="M 134.5,238.5 C 134.657,239.873 134.49,241.207 134,242.5C 132.532,243.989 131.032,245.323 129.5,246.5C 130.383,243.296 132.05,240.629 134.5,238.5 Z"/></g>
<g><path style="opacity:1" fill="#7b1218" d="M 118.5,238.5 C 120.664,240.822 122.331,243.489 123.5,246.5C 120.203,244.867 118.536,242.2 118.5,238.5 Z"/></g>
<g><path style="opacity:1" fill="#575456" d="M 96.5,246.5 C 94.3792,246.675 92.3792,246.341 90.5,245.5C 90.5,244.833 90.8333,244.5 91.5,244.5C 99.7525,244.914 103.753,240.914 103.5,232.5C 105.435,239.297 103.102,243.963 96.5,246.5 Z"/></g>
<g><path style="opacity:1" fill="#5f0910" d="M 206.5,235.5 C 207.222,235.918 207.722,236.584 208,237.5C 208.667,241.833 208.667,246.167 208,250.5C 207.617,251.056 207.117,251.389 206.5,251.5C 207.219,249.236 207.552,246.903 207.5,244.5C 207.492,241.455 207.159,238.455 206.5,235.5 Z"/></g>
<g><path style="opacity:1" fill="#987476" d="M 205.5,235.5 C 205.833,235.5 206.167,235.5 206.5,235.5C 207.159,238.455 207.492,241.455 207.5,244.5C 207.167,244.5 206.833,244.5 206.5,244.5C 206.296,241.482 205.963,238.482 205.5,235.5 Z"/></g>
<g><path style="opacity:1" fill="#920f14" d="M 113.5,230.5 C 115.897,232.662 117.564,235.329 118.5,238.5C 116.164,236.996 114.331,234.996 113,232.5C 112.667,236.167 112.333,239.833 112,243.5C 111.617,244.056 111.117,244.389 110.5,244.5C 110.726,239.427 111.726,234.761 113.5,230.5 Z"/></g>
<g><path style="opacity:1" fill="#9d9c9f" d="M 86.5,231.5 C 85.6583,236.051 86.9917,239.717 90.5,242.5C 90.0618,242.435 89.7284,242.601 89.5,243C 90.4158,243.278 91.0825,243.778 91.5,244.5C 90.8333,244.5 90.5,244.833 90.5,245.5C 88.2921,244.977 86.7921,243.644 86,241.5C 85.1925,237.973 85.3592,234.64 86.5,231.5 Z"/></g>
<g><path style="opacity:1" fill="#3e0f13" d="M 102.5,219.5 C 103.458,219.953 104.292,220.619 105,221.5C 106.284,226.024 107.95,230.357 110,234.5C 110.927,237.863 110.427,240.863 108.5,243.5C 108.5,242.833 108.5,242.167 108.5,241.5C 107.935,233.802 105.935,226.468 102.5,219.5 Z"/></g>
<g><path style="opacity:1" fill="#e7e6e6" d="M 66.5,209.5 C 66.5,210.167 66.5,210.833 66.5,211.5C 63.451,217.19 63.951,222.524 68,227.5C 68.3826,226.944 68.8826,226.611 69.5,226.5C 74.4539,229.619 79.7872,230.286 85.5,228.5C 86.3382,228.842 86.6716,229.508 86.5,230.5C 86.5,230.833 86.5,231.167 86.5,231.5C 85.3592,234.64 85.1925,237.973 86,241.5C 86.7921,243.644 88.2921,244.977 90.5,245.5C 92.3792,246.341 94.3792,246.675 96.5,246.5C 98.1059,247.359 99.7725,247.526 101.5,247C 100.748,247.671 100.414,248.504 100.5,249.5C 97.0242,250.643 93.3575,250.81 89.5,250C 86.3832,247.458 83.7166,244.458 81.5,241C 80.6667,240.833 79.8333,240.667 79,240.5C 77.6244,240.684 76.7911,241.351 76.5,242.5C 75.5,242.833 74.8333,243.5 74.5,244.5C 72.1162,246.885 69.4495,248.885 66.5,250.5C 59.5513,251.494 53.2179,250.16 47.5,246.5C 46.2875,241.757 46.6208,237.09 48.5,232.5C 50.8184,228.535 53.1517,224.535 55.5,220.5C 55.5,220.167 55.5,219.833 55.5,219.5C 58.1667,216.167 60.8333,212.833 63.5,209.5C 64.7978,208.884 65.7978,208.884 66.5,209.5 Z"/></g>
<g><path style="opacity:1" fill="#3f0a0a" d="M 76.5,242.5 C 80.5895,242.588 83.2562,244.588 84.5,248.5C 82.8143,246.984 80.981,245.65 79,244.5C 77.6974,244.978 76.5307,245.645 75.5,246.5C 75.1667,246.5 74.8333,246.5 74.5,246.5C 74.5,245.833 74.5,245.167 74.5,244.5C 74.8333,243.5 75.5,242.833 76.5,242.5 Z"/></g>
<g><path style="opacity:1" fill="#e0dfe0" d="M 164.5,196.5 C 169.562,196.274 174.562,196.608 179.5,197.5C 181.463,198.96 183.296,200.627 185,202.5C 187.437,205.72 189.603,209.053 191.5,212.5C 190.234,213.09 188.901,213.59 187.5,214C 189.578,215.27 189.912,216.77 188.5,218.5C 180.473,229.652 171.64,230.319 162,220.5C 161.187,218.564 160.687,216.564 160.5,214.5C 160.805,210.609 161.639,206.942 163,203.5C 159.645,207.12 158.478,211.12 159.5,215.5C 159.935,222.107 163.268,226.607 169.5,229C 172.482,229.498 175.482,229.665 178.5,229.5C 179.573,230.658 180.739,230.658 182,229.5C 183.261,229.759 184.261,230.426 185,231.5C 185.49,230.207 185.657,228.873 185.5,227.5C 186.924,226.563 188.758,225.563 191,224.5C 193.942,224.437 194.942,225.77 194,228.5C 193.085,229.328 192.419,230.328 192,231.5C 190.506,230.253 189.006,230.253 187.5,231.5C 188.589,234.966 188.089,238.633 186,242.5C 183.959,243.423 181.792,243.756 179.5,243.5C 177.112,240.924 174.112,239.924 170.5,240.5C 170.371,242.216 170.038,243.883 169.5,245.5C 167.809,246.864 166.142,248.197 164.5,249.5C 153.689,252.6 147.022,248.767 144.5,238C 145.361,234.449 146.361,230.949 147.5,227.5C 147.5,227.167 147.5,226.833 147.5,226.5C 152.559,217.385 157.392,208.052 162,198.5C 162.708,197.619 163.542,196.953 164.5,196.5 Z"/></g>
<g><path style="opacity:1" fill="#484849" d="M 149.5,232.5 C 150.183,241.012 154.85,245.179 163.5,245C 152.994,247.327 148.328,243.16 149.5,232.5 Z"/></g>
<g><path style="opacity:1" fill="#101011" d="M 156.5,227.5 C 165.054,226.872 168.221,230.538 166,238.5C 160.728,244.268 156.395,243.601 153,236.5C 152.333,234.833 152.333,233.167 153,231.5C 154.376,230.295 155.542,228.962 156.5,227.5 Z"/></g>
<g><path style="opacity:1" fill="#7d1110" d="M 147.5,226.5 C 147.5,226.833 147.5,227.167 147.5,227.5C 141.631,233.84 140.964,240.84 145.5,248.5C 149.937,252.532 155.27,254.199 161.5,253.5C 160.666,254.748 159.333,255.415 157.5,255.5C 144.244,253.715 138.744,246.049 141,232.5C 138.989,234.678 136.823,236.678 134.5,238.5C 138.417,231.956 142.25,225.289 146,218.5C 146.708,217.619 147.542,216.953 148.5,216.5C 149.895,214.946 150.561,215.279 150.5,217.5C 149.202,220.422 148.202,223.422 147.5,226.5 Z"/></g>
<g><path style="opacity:1" fill="#7c1c1f" d="M 195.5,216.5 C 198.954,220.035 201.954,224.035 204.5,228.5C 205.455,230.746 206.122,233.079 206.5,235.5C 206.167,235.5 205.833,235.5 205.5,235.5C 202.434,229.036 199.101,222.702 195.5,216.5 Z"/></g>
<g><path style="opacity:1" fill="#0f0d0e" d="M 90.5,242.5 C 86.9917,239.717 85.6583,236.051 86.5,231.5C 86.5,231.167 86.5,230.833 86.5,230.5C 90.0521,227.16 94.0521,226.66 98.5,229C 102.388,237.391 99.7213,241.891 90.5,242.5 Z"/></g>
<g><path style="opacity:1" fill="#39383b" d="M 160.5,214.5 C 160.687,216.564 161.187,218.564 162,220.5C 171.64,230.319 180.473,229.652 188.5,218.5C 186.552,223.447 183.219,227.114 178.5,229.5C 175.482,229.665 172.482,229.498 169.5,229C 163.268,226.607 159.935,222.107 159.5,215.5C 159.5,214.833 159.833,214.5 160.5,214.5 Z"/></g>
<g><path style="opacity:1" fill="#313132" d="M 92.5,216.5 C 93.3382,216.842 93.6716,217.508 93.5,218.5C 91.9358,222.729 89.2692,226.063 85.5,228.5C 79.7872,230.286 74.4539,229.619 69.5,226.5C 67.2332,224.633 66.0665,222.3 66,219.5C 72.9747,228.904 80.9747,229.904 90,222.5C 90.9383,220.512 91.7717,218.512 92.5,216.5 Z"/></g>
<g><path style="opacity:1" fill="#681619" d="M 55.5,220.5 C 53.1517,224.535 50.8184,228.535 48.5,232.5C 49.031,229.763 49.8644,227.096 51,224.5C 51.8763,222.365 53.3763,221.031 55.5,220.5 Z"/></g>
<g><path style="opacity:1" fill="#e8e6e6" d="M 191.5,212.5 C 192.833,213.833 194.167,215.167 195.5,216.5C 199.101,222.702 202.434,229.036 205.5,235.5C 205.963,238.482 206.296,241.482 206.5,244.5C 206.5,244.833 206.5,245.167 206.5,245.5C 200.592,249.896 193.925,251.563 186.5,250.5C 183.167,249.167 180.833,246.833 179.5,243.5C 181.792,243.756 183.959,243.423 186,242.5C 188.089,238.633 188.589,234.966 187.5,231.5C 189.006,230.253 190.506,230.253 192,231.5C 192.419,230.328 193.085,229.328 194,228.5C 194.942,225.77 193.942,224.437 191,224.5C 188.758,225.563 186.924,226.563 185.5,227.5C 185.657,228.873 185.49,230.207 185,231.5C 184.261,230.426 183.261,229.759 182,229.5C 180.739,230.658 179.573,230.658 178.5,229.5C 183.219,227.114 186.552,223.447 188.5,218.5C 189.912,216.77 189.578,215.27 187.5,214C 188.901,213.59 190.234,213.09 191.5,212.5 Z"/></g>
<g><path style="opacity:1" fill="#6b0f11" d="M 100.5,206.5 C 104.819,214.468 109.152,222.468 113.5,230.5C 111.726,234.761 110.726,239.427 110.5,244.5C 107.936,251.3 102.936,254.966 95.5,255.5C 90.2567,255.392 86.59,253.059 84.5,248.5C 92.0123,255.281 99.3456,255.114 106.5,248C 108.037,246.89 108.703,245.39 108.5,243.5C 110.427,240.863 110.927,237.863 110,234.5C 107.95,230.357 106.284,226.024 105,221.5C 104.292,220.619 103.458,219.953 102.5,219.5C 101.667,214.999 99.9999,210.833 97.5,207C 97.6667,206.5 97.8333,206 98,205.5C 98.6708,206.252 99.5041,206.586 100.5,206.5 Z"/></g>
<g><path style="opacity:1" fill="#dfdedf" d="M 88.5,197.5 C 90.6237,198.031 92.1237,199.365 93,201.5C 95.9558,207.751 99.1225,213.751 102.5,219.5C 105.935,226.468 107.935,233.802 108.5,241.5C 106.865,245.135 104.198,247.802 100.5,249.5C 100.414,248.504 100.748,247.671 101.5,247C 99.7725,247.526 98.1059,247.359 96.5,246.5C 103.102,243.963 105.435,239.297 103.5,232.5C 103.753,240.914 99.7525,244.914 91.5,244.5C 91.0825,243.778 90.4158,243.278 89.5,243C 89.7284,242.601 90.0618,242.435 90.5,242.5C 99.7213,241.891 102.388,237.391 98.5,229C 94.0521,226.66 90.0521,227.16 86.5,230.5C 86.6716,229.508 86.3382,228.842 85.5,228.5C 89.2692,226.063 91.9358,222.729 93.5,218.5C 94.4178,214.518 93.9178,210.518 92,206.5C 91.8333,207 91.6667,207.5 91.5,208C 92.3479,210.77 92.6813,213.603 92.5,216.5C 91.7717,218.512 90.9383,220.512 90,222.5C 80.9747,229.904 72.9747,228.904 66,219.5C 66.0665,222.3 67.2332,224.633 69.5,226.5C 68.8826,226.611 68.3826,226.944 68,227.5C 63.951,222.524 63.451,217.19 66.5,211.5C 66.33,212.822 66.6634,213.989 67.5,215C 70.4976,215.891 73.1643,215.391 75.5,213.5C 75.5,213.833 75.5,214.167 75.5,214.5C 72.8312,220.888 74.6645,223.221 81,221.5C 81.4955,219.527 81.6621,217.527 81.5,215.5C 81.5,215.167 81.5,214.833 81.5,214.5C 84.1667,214.5 86.8333,214.5 89.5,214.5C 89.5,212.5 89.5,210.5 89.5,208.5C 87.1667,208.5 84.8333,208.5 82.5,208.5C 81.8333,206.167 81.1667,203.833 80.5,201.5C 78.3021,200.835 75.9688,200.168 73.5,199.5C 73.7093,198.914 74.0426,198.414 74.5,198C 79.1548,197.501 83.8215,197.334 88.5,197.5 Z"/></g>
<g><path style="opacity:1" fill="#151515" d="M 172.5,216.5 C 177.984,216.481 179.65,218.981 177.5,224C 170.745,224.756 169.078,222.256 172.5,216.5 Z"/></g>
<g><path style="opacity:1" fill="#141414" d="M 81.5,215.5 C 81.6621,217.527 81.4955,219.527 81,221.5C 74.6645,223.221 72.8312,220.888 75.5,214.5C 77.7508,213.135 79.7508,213.469 81.5,215.5 Z"/></g>
<g><path style="opacity:1" fill="#111112" d="M 180.5,208.5 C 186.293,209.421 187.626,212.255 184.5,217C 181.783,218.033 179.949,217.2 179,214.5C 178.252,212.16 178.752,210.16 180.5,208.5 Z"/></g>
<g><path style="opacity:1" fill="#67686c" d="M 93.5,218.5 C 93.6716,217.508 93.3382,216.842 92.5,216.5C 92.6813,213.603 92.3479,210.77 91.5,208C 91.6667,207.5 91.8333,207 92,206.5C 93.9178,210.518 94.4178,214.518 93.5,218.5 Z"/></g>
<g><path style="opacity:1" fill="#949798" d="M 160.5,214.5 C 159.833,214.5 159.5,214.833 159.5,215.5C 158.478,211.12 159.645,207.12 163,203.5C 161.639,206.942 160.805,210.609 160.5,214.5 Z"/></g>
<g><path style="opacity:1" fill="#141313" d="M 75.5,213.5 C 73.1643,215.391 70.4976,215.891 67.5,215C 66.6634,213.989 66.33,212.822 66.5,211.5C 66.5,210.833 66.5,210.167 66.5,209.5C 68.7375,208.463 71.0709,208.297 73.5,209C 75.1066,210.049 75.7733,211.549 75.5,213.5 Z"/></g>
<g><path style="opacity:1" fill="#181819" d="M 165.5,208.5 C 172.678,210.515 173.178,213.515 167,217.5C 161.819,215.133 161.319,212.133 165.5,208.5 Z"/></g>
<g><path style="opacity:1" fill="#141314" d="M 82.5,208.5 C 84.8333,208.5 87.1667,208.5 89.5,208.5C 89.5,210.5 89.5,212.5 89.5,214.5C 86.8333,214.5 84.1667,214.5 81.5,214.5C 80.1353,212.249 80.4686,210.249 82.5,208.5 Z"/></g>
<g><path style="opacity:1" fill="#891917" d="M 66.5,204.5 C 65.7515,206.332 64.7515,207.999 63.5,209.5C 60.8333,212.833 58.1667,216.167 55.5,219.5C 55.9565,216.594 56.9565,213.928 58.5,211.5C 58.5,210.5 58.5,209.5 58.5,208.5C 59.5,208.5 60.5,208.5 61.5,208.5C 61.7458,205.53 63.4124,204.197 66.5,204.5 Z"/></g>
<g><path style="opacity:1" fill="#151416" d="M 172.5,201.5 C 178.854,201.605 180.187,204.439 176.5,210C 170.481,209.445 169.147,206.612 172.5,201.5 Z"/></g>
<g><path style="opacity:1" fill="#591013" d="M 156.5,189.5 C 157.818,190.757 159.151,192.091 160.5,193.5C 166.654,194.167 172.654,194.833 178.5,195.5C 173.637,195.181 168.97,195.514 164.5,196.5C 163.542,196.953 162.708,197.619 162,198.5C 157.392,208.052 152.559,217.385 147.5,226.5C 148.202,223.422 149.202,220.422 150.5,217.5C 150.561,215.279 149.895,214.946 148.5,216.5C 150.525,211.961 153.025,207.627 156,203.5C 157.666,198.856 157.833,194.189 156.5,189.5 Z"/></g>
<g><path style="opacity:1" fill="#cec6c6" d="M 78.5,196.5 C 82.0419,196.187 85.3752,196.521 88.5,197.5C 83.8215,197.334 79.1548,197.501 74.5,198C 74.0426,198.414 73.7093,198.914 73.5,199.5C 75.9688,200.168 78.3021,200.835 80.5,201.5C 81.1667,203.833 81.8333,206.167 82.5,208.5C 80.4686,210.249 80.1353,212.249 81.5,214.5C 81.5,214.833 81.5,215.167 81.5,215.5C 79.7508,213.469 77.7508,213.135 75.5,214.5C 75.5,214.167 75.5,213.833 75.5,213.5C 75.7733,211.549 75.1066,210.049 73.5,209C 71.0709,208.297 68.7375,208.463 66.5,209.5C 65.7978,208.884 64.7978,208.884 63.5,209.5C 64.7515,207.999 65.7515,206.332 66.5,204.5C 68.701,201.979 71.0343,199.479 73.5,197C 75.1341,196.506 76.8008,196.34 78.5,196.5 Z"/></g>
<g><path style="opacity:1" fill="#0d0a0c" d="M 80.5,201.5 C 80.6633,203.857 80.4966,206.19 80,208.5C 78.0624,209.86 76.3957,209.527 75,207.5C 74.5045,205.527 74.3379,203.527 74.5,201.5C 76.5,201.5 78.5,201.5 80.5,201.5 Z"/></g>
<g><path style="opacity:1" fill="#b7100d" d="M 202.5,131.5 C 205.279,131.279 207.946,131.612 210.5,132.5C 210.833,166.507 210.5,200.507 209.5,234.5C 209.214,231.29 207.547,229.29 204.5,228.5C 201.954,224.035 198.954,220.035 195.5,216.5C 192.994,210.658 189.66,205.325 185.5,200.5C 186.167,200.5 186.833,200.5 187.5,200.5C 188.189,203.353 190.022,205.019 193,205.5C 193.112,208.447 194.612,209.78 197.5,209.5C 197.5,208.5 197.5,207.5 197.5,206.5C 199.451,206.227 200.951,206.893 202,208.5C 203.617,207.464 203.784,206.297 202.5,205C 203.667,204.5 204.5,203.667 205,202.5C 205.219,203.938 205.719,205.271 206.5,206.5C 207.086,206.291 207.586,205.957 208,205.5C 208.333,206.833 208.667,208.167 209,209.5C 209.667,200.833 209.667,192.167 209,183.5C 208.834,187.511 208,188.011 206.5,185C 207.114,172.34 207.114,159.84 206.5,147.5C 207.498,144.972 208.331,144.972 209,147.5C 209.828,142.798 209.662,138.131 208.5,133.5C 206.343,132.95 204.343,132.283 202.5,131.5 Z"/></g>
<g><path style="opacity:1" fill="#b70c0b" d="M 43.5,131.5 C 45.3803,133.878 47.047,136.378 48.5,139C 47.1667,140.333 47.1667,141.667 48.5,143C 47.8333,143.333 47.1667,143.667 46.5,144C 46.5793,146.772 46.9126,149.438 47.5,152C 46.552,152.483 45.552,152.649 44.5,152.5C 44.8723,155.617 44.8723,158.617 44.5,161.5C 46.7476,162.324 46.9142,163.324 45,164.5C 44.9012,167.148 44.7346,169.648 44.5,172C 44.9504,173.285 45.6171,174.452 46.5,175.5C 45.6054,177.345 46.2721,178.678 48.5,179.5C 48.5,179.833 48.5,180.167 48.5,180.5C 47.548,181.452 46.548,182.452 45.5,183.5C 48.0578,185.12 48.0578,186.62 45.5,188C 46.9013,189.677 48.2347,191.344 49.5,193C 49.0946,193.945 48.428,194.612 47.5,195C 48.5832,197.056 50.2499,198.389 52.5,199C 49.9211,200.612 49.9211,202.112 52.5,203.5C 52.9976,202.397 53.3309,201.397 53.5,200.5C 54.7899,202.792 56.4565,204.792 58.5,206.5C 59.3857,205.675 59.719,204.675 59.5,203.5C 60.5,203.5 61.5,203.5 62.5,203.5C 62.6509,200.282 63.4842,199.949 65,202.5C 64.7122,198.858 66.2122,196.358 69.5,195C 68.0072,193.844 68.1739,193.01 70,192.5C 77.1997,193.598 84.3664,193.265 91.5,191.5C 90.9747,190.808 90.3081,190.308 89.5,190C 89.1898,188.126 89.6898,186.293 91,184.5C 91.49,185.793 91.6567,187.127 91.5,188.5C 92.8221,188.67 93.9887,188.337 95,187.5C 96.5303,185.587 97.8637,182.92 99,179.5C 99.6708,180.252 100.504,180.586 101.5,180.5C 100.89,181.391 100.557,182.391 100.5,183.5C 97.954,186.9 95.6207,190.566 93.5,194.5C 92.3112,195.429 90.9778,195.762 89.5,195.5C 84.1423,194.214 78.6423,194.214 73,195.5C 69.8441,197.822 67.6774,200.822 66.5,204.5C 63.4124,204.197 61.7458,205.53 61.5,208.5C 60.5,208.5 59.5,208.5 58.5,208.5C 58.5,209.5 58.5,210.5 58.5,211.5C 56.3618,211.703 54.6951,212.703 53.5,214.5C 52.6667,212.5 51.8333,210.5 51,208.5C 48.9361,209.591 46.7695,209.758 44.5,209C 45.3081,208.692 45.9747,208.192 46.5,207.5C 45.3112,206.571 43.9778,206.238 42.5,206.5C 42.169,181.328 42.5023,156.328 43.5,131.5 Z"/></g>
<g><path style="opacity:1" fill="#260c0b" d="M 139.5,169.5 C 141.5,170.167 143.5,170.833 145.5,171.5C 146.167,171.5 146.833,171.5 147.5,171.5C 146.013,173.842 146.346,175.842 148.5,177.5C 150.737,179.647 152.737,181.98 154.5,184.5C 155.441,186.05 156.107,187.716 156.5,189.5C 157.833,194.189 157.666,198.856 156,203.5C 153.025,207.627 150.525,211.961 148.5,216.5C 147.542,216.953 146.708,217.619 146,218.5C 142.25,225.289 138.417,231.956 134.5,238.5C 132.05,240.629 130.383,243.296 129.5,246.5C 128.288,247.23 127.288,248.23 126.5,249.5C 125.482,248.807 124.482,248.141 123.5,247.5C 123.5,247.167 123.5,246.833 123.5,246.5C 122.331,243.489 120.664,240.822 118.5,238.5C 117.564,235.329 115.897,232.662 113.5,230.5C 109.152,222.468 104.819,214.468 100.5,206.5C 98.9335,203.717 97.1001,201.051 95,198.5C 94.1231,196.326 94.6231,194.659 96.5,193.5C 96.372,195.655 96.872,197.655 98,199.5C 101.03,204.015 104.197,208.349 107.5,212.5C 112.071,221.738 117.071,230.738 122.5,239.5C 124.168,241.34 125.668,243.34 127,245.5C 129.09,242.978 130.924,240.312 132.5,237.5C 139.411,224.006 147.077,211.006 155.5,198.5C 156.613,197.054 156.78,195.387 156,193.5C 152.057,187.259 147.891,181.259 143.5,175.5C 143.5,174.833 143.167,174.5 142.5,174.5C 141.248,172.999 140.248,171.332 139.5,169.5 Z"/></g>
<g><path style="opacity:1" fill="#443d38" d="M 132.5,237.5 C 130.924,240.312 129.09,242.978 127,245.5C 125.668,243.34 124.168,241.34 122.5,239.5C 125.63,237.977 128.963,237.311 132.5,237.5 Z"/></g>
<g><path style="opacity:1" fill="#6c6461" d="M 155.5,198.5 C 147.077,211.006 139.411,224.006 132.5,237.5C 128.963,237.311 125.63,237.977 122.5,239.5C 117.071,230.738 112.071,221.738 107.5,212.5C 113.982,220.095 120.482,227.762 127,235.5C 136.105,224.235 144.605,212.569 152.5,200.5C 153.315,199.571 154.148,198.571 155,197.5C 155.399,197.728 155.565,198.062 155.5,198.5 Z"/></g>
<g><path style="opacity:1" fill="#711112" d="M 89.5,195.5 C 85.6286,195.185 81.9619,195.518 78.5,196.5C 76.8008,196.34 75.1341,196.506 73.5,197C 71.0343,199.479 68.701,201.979 66.5,204.5C 67.6774,200.822 69.8441,197.822 73,195.5C 78.6423,194.214 84.1423,194.214 89.5,195.5 Z"/></g>
<g><path style="opacity:1" fill="#7a1e1c" d="M 179.5,197.5 C 179.5,197.167 179.5,196.833 179.5,196.5C 181.754,197.415 183.754,198.748 185.5,200.5C 189.66,205.325 192.994,210.658 195.5,216.5C 194.167,215.167 192.833,213.833 191.5,212.5C 189.603,209.053 187.437,205.72 185,202.5C 183.296,200.627 181.463,198.96 179.5,197.5 Z"/></g>
<g><path style="opacity:1" fill="#0d0d0d" d="M 152.5,200.5 C 144.605,212.569 136.105,224.235 127,235.5C 120.482,227.762 113.982,220.095 107.5,212.5C 105.508,208.517 103.508,204.517 101.5,200.5C 102.873,196.737 105.373,194.071 109,192.5C 114.773,195.969 120.607,199.302 126.5,202.5C 132.755,199.568 138.755,196.234 144.5,192.5C 148.825,193.492 151.492,196.158 152.5,200.5 Z"/></g>
<g><path style="opacity:1" fill="#cbcbcb" d="M 139.5,200.5 C 141.688,201.536 141.688,203.036 139.5,205C 137.179,205.837 134.845,206.17 132.5,206C 135.266,204.629 137.599,202.796 139.5,200.5 Z"/></g>
<g><path style="opacity:1" fill="#cacaca" d="M 112.5,200.5 C 115.286,202.113 117.953,203.946 120.5,206C 118.155,206.17 115.821,205.837 113.5,205C 112.62,203.644 112.286,202.144 112.5,200.5 Z"/></g>
<g><path style="opacity:1" fill="#502123" d="M 164.5,196.5 C 168.97,195.514 173.637,195.181 178.5,195.5C 179.167,195.5 179.5,195.833 179.5,196.5C 179.5,196.833 179.5,197.167 179.5,197.5C 174.562,196.608 169.562,196.274 164.5,196.5 Z"/></g>
<g><path style="opacity:1" fill="#4e4c4c" d="M 128.5,174.5 C 129.26,180.804 129.593,187.137 129.5,193.5C 134.318,192.112 138.652,189.779 142.5,186.5C 143.489,182.893 143.823,179.226 143.5,175.5C 147.891,181.259 152.057,187.259 156,193.5C 156.78,195.387 156.613,197.054 155.5,198.5C 155.565,198.062 155.399,197.728 155,197.5C 154.148,198.571 153.315,199.571 152.5,200.5C 151.492,196.158 148.825,193.492 144.5,192.5C 138.755,196.234 132.755,199.568 126.5,202.5C 120.607,199.302 114.773,195.969 109,192.5C 105.373,194.071 102.873,196.737 101.5,200.5C 103.508,204.517 105.508,208.517 107.5,212.5C 104.197,208.349 101.03,204.015 98,199.5C 96.872,197.655 96.372,195.655 96.5,193.5C 97.1667,193.5 97.5,193.167 97.5,192.5C 104.785,191.715 112.119,190.882 119.5,190C 123.172,185.147 126.172,179.981 128.5,174.5 Z"/></g>
<g><path style="opacity:1" fill="#666564" d="M 128.5,174.5 C 133.167,174.5 137.833,174.5 142.5,174.5C 143.167,174.5 143.5,174.833 143.5,175.5C 143.823,179.226 143.489,182.893 142.5,186.5C 138.652,189.779 134.318,192.112 129.5,193.5C 129.593,187.137 129.26,180.804 128.5,174.5 Z"/></g>
<g><path style="opacity:1" fill="#c2090a" d="M 57.5,144.5 C 58.5981,145.397 58.5981,146.23 57.5,147C 59.0948,146.383 60.4281,146.716 61.5,148C 60.7471,149.487 59.9138,149.654 59,148.5C 56.6413,151.124 56.9746,151.791 60,150.5C 62.8262,151.917 62.9928,153.417 60.5,155C 61.0712,156.205 61.7379,157.372 62.5,158.5C 63.4255,159.641 64.2588,159.641 65,158.5C 66.008,160.259 67.508,161.426 69.5,162C 68.2309,164.139 68.2309,166.305 69.5,168.5C 70.451,167.674 71.451,167.508 72.5,168C 73.0611,169.676 74.0611,171.009 75.5,172C 73.3874,172.872 72.0541,174.372 71.5,176.5C 73.4981,176.764 75.1648,178.097 76.5,180.5C 75.9556,182.58 75.1223,184.58 74,186.5C 73.6411,183.456 72.9745,183.122 72,185.5C 71.3333,184.167 70.6667,184.167 70,185.5C 70.0773,184.262 69.9106,183.262 69.5,182.5C 67.5679,183.145 66.4012,184.479 66,186.5C 65.3333,185.833 64.6667,185.167 64,184.5C 63,186.833 62,189.167 61,191.5C 59.5806,190.54 58.0806,189.707 56.5,189C 57.0164,186.967 56.3497,186.967 54.5,189C 56.9468,190.229 57.1135,191.729 55,193.5C 53.6914,191.109 52.6914,191.109 52,193.5C 51.3112,190.592 50.1445,187.925 48.5,185.5C 49.0253,184.808 49.6919,184.308 50.5,184C 49.0267,183.29 48.3601,182.124 48.5,180.5C 48.5,180.167 48.5,179.833 48.5,179.5C 49.3149,180.429 50.1482,181.429 51,182.5C 51.3742,181.584 51.8742,180.75 52.5,180C 50.3215,179.558 49.6548,178.558 50.5,177C 49.8333,176.333 49.1667,175.667 48.5,175C 50.1667,173.667 51.8333,172.333 53.5,171C 52.2577,167.643 51.4244,167.81 51,171.5C 49.2491,169.788 48.5825,167.788 49,165.5C 49.3333,165.833 49.6667,166.167 50,166.5C 51.3198,164.183 52.9864,162.183 55,160.5C 55.9872,164.767 56.8205,165.1 57.5,161.5C 61.5,161.167 61.5,160.833 57.5,160.5C 57.6602,158.801 57.4935,157.134 57,155.5C 56.2496,156.126 55.4162,156.626 54.5,157C 55.3081,157.308 55.9747,157.808 56.5,158.5C 54.9089,159.864 53.2422,160.697 51.5,161C 51.799,159.68 51.9657,158.18 52,156.5C 56.2701,154.771 56.1034,153.937 51.5,154C 49.4873,152.209 49.4873,150.875 51.5,150C 50.6721,149.085 49.6721,148.419 48.5,148C 50.8991,147.289 53.2324,147.456 55.5,148.5C 55.3867,147.141 56.0534,145.807 57.5,144.5 Z"/></g>
<g><path style="opacity:1" fill="#322f2d" d="M 134.5,166.5 C 132.5,166.5 130.5,166.5 128.5,166.5C 128.5,168.833 128.5,171.167 128.5,173.5C 131.833,173.5 135.167,173.5 138.5,173.5C 138.5,171.833 138.5,170.167 138.5,168.5C 139.167,168.5 139.5,168.833 139.5,169.5C 140.248,171.332 141.248,172.999 142.5,174.5C 137.833,174.5 133.167,174.5 128.5,174.5C 126.172,179.981 123.172,185.147 119.5,190C 112.119,190.882 104.785,191.715 97.5,192.5C 102.46,183.486 108.794,175.32 116.5,168C 122.289,163.987 128.289,163.487 134.5,166.5 Z"/></g>
<g><path style="opacity:1" fill="#3a0b0a" d="M 136.5,163.5 C 137.585,165.587 139.251,166.92 141.5,167.5C 143.71,167.894 145.043,169.227 145.5,171.5C 143.5,170.833 141.5,170.167 139.5,169.5C 139.5,168.833 139.167,168.5 138.5,168.5C 137.486,167.326 136.153,166.66 134.5,166.5C 128.289,163.487 122.289,163.987 116.5,168C 108.794,175.32 102.46,183.486 97.5,192.5C 97.5,193.167 97.1667,193.5 96.5,193.5C 94.6231,194.659 94.1231,196.326 95,198.5C 97.1001,201.051 98.9335,203.717 100.5,206.5C 99.5041,206.586 98.6708,206.252 98,205.5C 97.8333,206 97.6667,206.5 97.5,207C 99.9999,210.833 101.667,214.999 102.5,219.5C 99.1225,213.751 95.9558,207.751 93,201.5C 92.1237,199.365 90.6237,198.031 88.5,197.5C 85.3752,196.521 82.0419,196.187 78.5,196.5C 81.9619,195.518 85.6286,195.185 89.5,195.5C 90.9778,195.762 92.3112,195.429 93.5,194.5C 95.6207,190.566 97.954,186.9 100.5,183.5C 106.473,175.527 113.473,168.527 121.5,162.5C 126.55,161.253 131.55,161.586 136.5,163.5 Z"/></g>
<g><path style="opacity:1" fill="#bd0a09" d="M 143.5,157.5 C 144.583,157.539 145.583,157.873 146.5,158.5C 147.696,158.154 147.696,157.654 146.5,157C 147.833,156.333 149.167,156.333 150.5,157C 145.032,165.191 146.532,166.357 155,160.5C 155.167,160.833 155.333,161.167 155.5,161.5C 153.524,163.854 151.191,166.521 148.5,169.5C 149.578,172.439 151.078,175.105 153,177.5C 153.977,179.74 154.477,182.073 154.5,184.5C 152.737,181.98 150.737,179.647 148.5,177.5C 148.795,175.265 148.461,173.265 147.5,171.5C 146.833,171.5 146.167,171.5 145.5,171.5C 145.043,169.227 143.71,167.894 141.5,167.5C 140.415,165.413 138.749,164.08 136.5,163.5C 131.55,161.586 126.55,161.253 121.5,162.5C 120.127,162.343 118.793,162.51 117.5,163C 113.174,166.966 109.174,171.133 105.5,175.5C 104.675,176.386 103.675,176.719 102.5,176.5C 102.567,177.959 102.234,179.292 101.5,180.5C 100.504,180.586 99.6708,180.252 99,179.5C 97.8637,182.92 96.5303,185.587 95,187.5C 93.9887,188.337 92.8221,188.67 91.5,188.5C 91.6567,187.127 91.49,185.793 91,184.5C 89.6898,186.293 89.1898,188.126 89.5,190C 90.3081,190.308 90.9747,190.808 91.5,191.5C 84.3664,193.265 77.1997,193.598 70,192.5C 68.1739,193.01 68.0072,193.844 69.5,195C 66.2122,196.358 64.7122,198.858 65,202.5C 63.4842,199.949 62.6509,200.282 62.5,203.5C 61.5,203.5 60.5,203.5 59.5,203.5C 59.719,204.675 59.3857,205.675 58.5,206.5C 56.4565,204.792 54.7899,202.792 53.5,200.5C 53.3309,201.397 52.9976,202.397 52.5,203.5C 49.9211,202.112 49.9211,200.612 52.5,199C 50.2499,198.389 48.5832,197.056 47.5,195C 48.428,194.612 49.0946,193.945 49.5,193C 48.2347,191.344 46.9013,189.677 45.5,188C 48.0578,186.62 48.0578,185.12 45.5,183.5C 46.548,182.452 47.548,181.452 48.5,180.5C 48.3601,182.124 49.0267,183.29 50.5,184C 49.6919,184.308 49.0253,184.808 48.5,185.5C 50.1445,187.925 51.3112,190.592 52,193.5C 52.6914,191.109 53.6914,191.109 55,193.5C 57.1135,191.729 56.9468,190.229 54.5,189C 56.3497,186.967 57.0164,186.967 56.5,189C 58.0806,189.707 59.5806,190.54 61,191.5C 62,189.167 63,186.833 64,184.5C 64.6667,185.167 65.3333,185.833 66,186.5C 66.4012,184.479 67.5679,183.145 69.5,182.5C 69.9106,183.262 70.0773,184.262 70,185.5C 70.6667,184.167 71.3333,184.167 72,185.5C 72.9745,183.122 73.6411,183.456 74,186.5C 75.1223,184.58 75.9556,182.58 76.5,180.5C 78.2327,181.008 78.566,181.841 77.5,183C 78.5,183.667 79.5,183.667 80.5,183C 80.1667,182.667 79.8333,182.333 79.5,182C 81.5161,181.101 83.1828,179.767 84.5,178C 85.7441,177.544 86.5774,178.044 87,179.5C 88.9152,174.212 89.5819,174.212 89,179.5C 90.2362,178.601 91.0696,177.434 91.5,176C 90.1224,173.902 90.4558,172.068 92.5,170.5C 92.8333,171 93.1667,171.5 93.5,172C 92.4189,175.92 93.0856,176.253 95.5,173C 94.9491,171.602 94.6158,170.268 94.5,169C 97.0352,168.072 98.0352,166.238 97.5,163.5C 93.861,162.732 94.1943,162.066 98.5,161.5C 98.3505,162.552 98.5172,163.552 99,164.5C 100.242,163.128 101.742,162.128 103.5,161.5C 104.51,157.302 106.01,153.302 108,149.5C 108.333,150.167 108.667,150.833 109,151.5C 109.278,150.584 109.778,149.918 110.5,149.5C 110.491,151.308 110.991,152.975 112,154.5C 112.684,153.216 112.517,152.049 111.5,151C 112.416,150.626 113.25,150.126 114,149.5C 113.805,151.126 113.805,152.793 114,154.5C 115.054,152.246 116.554,151.913 118.5,153.5C 122.009,152.096 125.342,150.429 128.5,148.5C 130.056,149.547 131.723,150.214 133.5,150.5C 133.5,151.5 133.5,152.5 133.5,153.5C 131.774,153.185 130.107,153.019 128.5,153C 127.167,153.667 127.167,154.333 128.5,155C 127.833,155.333 127.167,155.667 126.5,156C 127.938,156.219 129.271,156.719 130.5,157.5C 129.833,157.833 129.167,158.167 128.5,158.5C 132.662,158.97 136.496,160.304 140,162.5C 141.434,162.07 142.601,161.236 143.5,160C 137.012,158.02 137.012,157.187 143.5,157.5 Z"/></g>
<g><path style="opacity:1" fill="#661e1c" d="M 147.5,171.5 C 148.461,173.265 148.795,175.265 148.5,177.5C 146.346,175.842 146.013,173.842 147.5,171.5 Z"/></g>
<g><path style="opacity:1" fill="#48443f" d="M 134.5,166.5 C 136.153,166.66 137.486,167.326 138.5,168.5C 138.5,170.167 138.5,171.833 138.5,173.5C 135.167,173.5 131.833,173.5 128.5,173.5C 128.5,171.167 128.5,168.833 128.5,166.5C 130.5,166.5 132.5,166.5 134.5,166.5 Z"/></g>
<g><path style="opacity:1" fill="#680709" d="M 136.5,163.5 C 138.749,164.08 140.415,165.413 141.5,167.5C 139.251,166.92 137.585,165.587 136.5,163.5 Z"/></g>
<g><path style="opacity:1" fill="#881110" d="M 121.5,162.5 C 113.473,168.527 106.473,175.527 100.5,183.5C 100.557,182.391 100.89,181.391 101.5,180.5C 102.234,179.292 102.567,177.959 102.5,176.5C 103.675,176.719 104.675,176.386 105.5,175.5C 109.174,171.133 113.174,166.966 117.5,163C 118.793,162.51 120.127,162.343 121.5,162.5 Z"/></g>
<g><path style="opacity:1" fill="#c10909" d="M 43.5,131.5 C 63.1667,131.5 82.8333,131.5 102.5,131.5C 102.461,132.756 102.961,133.756 104,134.5C 111.803,133.818 119.636,133.152 127.5,132.5C 128.696,132.846 128.696,133.346 127.5,134C 128.667,134.167 129.833,134.333 131,134.5C 137.209,133.202 143.042,133.202 148.5,134.5C 149.581,136.764 150.915,138.931 152.5,141C 150.924,140.848 149.591,140.015 148.5,138.5C 147.114,140.644 145.614,141.977 144,142.5C 140.703,138.596 139.703,139.262 141,144.5C 135.881,143.743 135.381,145.076 139.5,148.5C 138.391,149.965 138.891,150.965 141,151.5C 142.356,150.62 143.856,150.286 145.5,150.5C 145.657,151.873 145.49,153.207 145,154.5C 144.282,153.549 143.449,153.383 142.5,154C 143.328,154.915 144.328,155.581 145.5,156C 144.584,156.278 143.918,156.778 143.5,157.5C 137.012,157.187 137.012,158.02 143.5,160C 142.601,161.236 141.434,162.07 140,162.5C 136.496,160.304 132.662,158.97 128.5,158.5C 129.167,158.167 129.833,157.833 130.5,157.5C 129.271,156.719 127.938,156.219 126.5,156C 127.167,155.667 127.833,155.333 128.5,155C 127.167,154.333 127.167,153.667 128.5,153C 130.107,153.019 131.774,153.185 133.5,153.5C 133.5,152.5 133.5,151.5 133.5,150.5C 131.723,150.214 130.056,149.547 128.5,148.5C 125.342,150.429 122.009,152.096 118.5,153.5C 116.554,151.913 115.054,152.246 114,154.5C 113.805,152.793 113.805,151.126 114,149.5C 113.25,150.126 112.416,150.626 111.5,151C 112.517,152.049 112.684,153.216 112,154.5C 110.991,152.975 110.491,151.308 110.5,149.5C 111.455,146.513 110.622,143.847 108,141.5C 107.885,143.107 108.385,144.607 109.5,146C 109.056,147.762 108.556,147.595 108,145.5C 105.74,147.997 104.407,147.33 104,143.5C 103.033,146.905 101.2,147.405 98.5,145C 98.8333,144.667 99.1667,144.333 99.5,144C 96.8333,143.333 94.1667,142.667 91.5,142C 93.9316,140.913 93.5983,140.413 90.5,140.5C 90.728,138.645 90.0613,137.812 88.5,138C 89.5536,139.388 89.7203,140.888 89,142.5C 87.5735,139.778 85.7402,137.444 83.5,135.5C 81.6053,136.973 79.9387,138.64 78.5,140.5C 77.2011,139.91 76.3678,138.91 76,137.5C 71.2405,141.77 70.0739,141.103 72.5,135.5C 70.3984,135.521 68.2317,135.187 66,134.5C 65.6924,135.308 65.1924,135.975 64.5,136.5C 63.2322,135.572 61.8989,135.405 60.5,136C 62.8776,136.974 62.5443,137.641 59.5,138C 60.8333,138.667 60.8333,139.333 59.5,140C 60.7376,139.923 61.7376,140.089 62.5,140.5C 60.7325,142.501 59.0658,143.834 57.5,144.5C 56.0534,145.807 55.3867,147.141 55.5,148.5C 53.2324,147.456 50.8991,147.289 48.5,148C 49.6721,148.419 50.6721,149.085 51.5,150C 49.4873,150.875 49.4873,152.209 51.5,154C 56.1034,153.937 56.2701,154.771 52,156.5C 51.9657,158.18 51.799,159.68 51.5,161C 53.2422,160.697 54.9089,159.864 56.5,158.5C 55.9747,157.808 55.3081,157.308 54.5,157C 55.4162,156.626 56.2496,156.126 57,155.5C 57.4935,157.134 57.6602,158.801 57.5,160.5C 61.5,160.833 61.5,161.167 57.5,161.5C 56.8205,165.1 55.9872,164.767 55,160.5C 52.9864,162.183 51.3198,164.183 50,166.5C 49.6667,166.167 49.3333,165.833 49,165.5C 48.5825,167.788 49.2491,169.788 51,171.5C 51.4244,167.81 52.2577,167.643 53.5,171C 51.8333,172.333 50.1667,173.667 48.5,175C 49.1667,175.667 49.8333,176.333 50.5,177C 49.6548,178.558 50.3215,179.558 52.5,180C 51.8742,180.75 51.3742,181.584 51,182.5C 50.1482,181.429 49.3149,180.429 48.5,179.5C 46.2721,178.678 45.6054,177.345 46.5,175.5C 45.6171,174.452 44.9504,173.285 44.5,172C 44.7346,169.648 44.9012,167.148 45,164.5C 46.9142,163.324 46.7476,162.324 44.5,161.5C 44.8723,158.617 44.8723,155.617 44.5,152.5C 45.552,152.649 46.552,152.483 47.5,152C 46.9126,149.438 46.5793,146.772 46.5,144C 47.1667,143.667 47.8333,143.333 48.5,143C 47.1667,141.667 47.1667,140.333 48.5,139C 47.047,136.378 45.3803,133.878 43.5,131.5 Z"/></g>
<g><path style="opacity:1" fill="#c30a0a" d="M 110.5,149.5 C 109.778,149.918 109.278,150.584 109,151.5C 108.667,150.833 108.333,150.167 108,149.5C 106.01,153.302 104.51,157.302 103.5,161.5C 101.742,162.128 100.242,163.128 99,164.5C 98.5172,163.552 98.3505,162.552 98.5,161.5C 94.1943,162.066 93.861,162.732 97.5,163.5C 98.0352,166.238 97.0352,168.072 94.5,169C 94.6158,170.268 94.9491,171.602 95.5,173C 93.0856,176.253 92.4189,175.92 93.5,172C 93.1667,171.5 92.8333,171 92.5,170.5C 90.4558,172.068 90.1224,173.902 91.5,176C 91.0696,177.434 90.2362,178.601 89,179.5C 89.5819,174.212 88.9152,174.212 87,179.5C 86.5774,178.044 85.7441,177.544 84.5,178C 83.1828,179.767 81.5161,181.101 79.5,182C 79.8333,182.333 80.1667,182.667 80.5,183C 79.5,183.667 78.5,183.667 77.5,183C 78.566,181.841 78.2327,181.008 76.5,180.5C 75.1648,178.097 73.4981,176.764 71.5,176.5C 72.0541,174.372 73.3874,172.872 75.5,172C 74.0611,171.009 73.0611,169.676 72.5,168C 71.451,167.508 70.451,167.674 69.5,168.5C 68.2309,166.305 68.2309,164.139 69.5,162C 67.508,161.426 66.008,160.259 65,158.5C 64.2588,159.641 63.4255,159.641 62.5,158.5C 61.7379,157.372 61.0712,156.205 60.5,155C 62.9928,153.417 62.8262,151.917 60,150.5C 56.9746,151.791 56.6413,151.124 59,148.5C 59.9138,149.654 60.7471,149.487 61.5,148C 60.4281,146.716 59.0948,146.383 57.5,147C 58.5981,146.23 58.5981,145.397 57.5,144.5C 59.0658,143.834 60.7325,142.501 62.5,140.5C 61.7376,140.089 60.7376,139.923 59.5,140C 60.8333,139.333 60.8333,138.667 59.5,138C 62.5443,137.641 62.8776,136.974 60.5,136C 61.8989,135.405 63.2322,135.572 64.5,136.5C 65.1924,135.975 65.6924,135.308 66,134.5C 68.2317,135.187 70.3984,135.521 72.5,135.5C 70.0739,141.103 71.2405,141.77 76,137.5C 76.3678,138.91 77.2011,139.91 78.5,140.5C 79.9387,138.64 81.6053,136.973 83.5,135.5C 85.7402,137.444 87.5735,139.778 89,142.5C 89.7203,140.888 89.5536,139.388 88.5,138C 90.0613,137.812 90.728,138.645 90.5,140.5C 93.5983,140.413 93.9316,140.913 91.5,142C 94.1667,142.667 96.8333,143.333 99.5,144C 99.1667,144.333 98.8333,144.667 98.5,145C 101.2,147.405 103.033,146.905 104,143.5C 104.407,147.33 105.74,147.997 108,145.5C 108.556,147.595 109.056,147.762 109.5,146C 108.385,144.607 107.885,143.107 108,141.5C 110.622,143.847 111.455,146.513 110.5,149.5 Z"/></g>
<g><path style="opacity:1" fill="#c30a09" d="M 187.5,200.5 C 186.833,200.5 186.167,200.5 185.5,200.5C 183.754,198.748 181.754,197.415 179.5,196.5C 179.5,195.833 179.167,195.5 178.5,195.5C 172.654,194.833 166.654,194.167 160.5,193.5C 159.151,192.091 157.818,190.757 156.5,189.5C 156.107,187.716 155.441,186.05 154.5,184.5C 154.477,182.073 153.977,179.74 153,177.5C 151.078,175.105 149.578,172.439 148.5,169.5C 151.191,166.521 153.524,163.854 155.5,161.5C 155.333,161.167 155.167,160.833 155,160.5C 146.532,166.357 145.032,165.191 150.5,157C 149.167,156.333 147.833,156.333 146.5,157C 147.696,157.654 147.696,158.154 146.5,158.5C 145.583,157.873 144.583,157.539 143.5,157.5C 143.918,156.778 144.584,156.278 145.5,156C 144.328,155.581 143.328,154.915 142.5,154C 143.449,153.383 144.282,153.549 145,154.5C 145.49,153.207 145.657,151.873 145.5,150.5C 143.856,150.286 142.356,150.62 141,151.5C 138.891,150.965 138.391,149.965 139.5,148.5C 135.381,145.076 135.881,143.743 141,144.5C 139.703,139.262 140.703,138.596 144,142.5C 145.614,141.977 147.114,140.644 148.5,138.5C 149.591,140.015 150.924,140.848 152.5,141C 150.915,138.931 149.581,136.764 148.5,134.5C 149.833,134.5 151.167,134.5 152.5,134.5C 152.343,135.873 152.51,137.207 153,138.5C 153.5,137.333 154.333,136.5 155.5,136C 154.833,135.667 154.167,135.333 153.5,135C 166.044,132.047 178.71,131.713 191.5,134C 190.424,135.726 190.257,137.559 191,139.5C 191.92,137.368 193.087,135.368 194.5,133.5C 194.833,134.167 195.167,134.833 195.5,135.5C 196.086,135.291 196.586,134.957 197,134.5C 197.781,135.944 197.614,137.277 196.5,138.5C 195.808,137.975 195.308,137.308 195,136.5C 194.833,137 194.667,137.5 194.5,138C 195.732,140.151 195.732,142.317 194.5,144.5C 194.76,146.187 195.427,147.687 196.5,149C 195.833,149.333 195.167,149.667 194.5,150C 195.833,150.667 195.833,151.333 194.5,152C 196.513,152.875 196.513,154.209 194.5,156C 197.044,158.222 197.044,160.389 194.5,162.5C 194.818,163.647 195.484,164.481 196.5,165C 194.172,167.856 193.839,171.023 195.5,174.5C 196.729,175.281 198.062,175.781 199.5,176C 195.402,179.514 193.402,184.014 193.5,189.5C 192.914,189.291 192.414,188.957 192,188.5C 192.979,190.279 192.646,191.945 191,193.5C 190.107,192.289 189.274,192.289 188.5,193.5C 189.95,194.85 190.617,196.516 190.5,198.5C 188.821,198.285 187.821,198.952 187.5,200.5 Z"/></g>
<g><path style="opacity:1" fill="#bf0d0a" d="M 102.5,131.5 C 135.833,131.5 169.167,131.5 202.5,131.5C 204.343,132.283 206.343,132.95 208.5,133.5C 209.662,138.131 209.828,142.798 209,147.5C 208.331,144.972 207.498,144.972 206.5,147.5C 207.114,159.84 207.114,172.34 206.5,185C 208,188.011 208.834,187.511 209,183.5C 209.667,192.167 209.667,200.833 209,209.5C 208.667,208.167 208.333,206.833 208,205.5C 207.586,205.957 207.086,206.291 206.5,206.5C 205.719,205.271 205.219,203.938 205,202.5C 204.5,203.667 203.667,204.5 202.5,205C 203.784,206.297 203.617,207.464 202,208.5C 200.951,206.893 199.451,206.227 197.5,206.5C 197.5,207.5 197.5,208.5 197.5,209.5C 194.612,209.78 193.112,208.447 193,205.5C 190.022,205.019 188.189,203.353 187.5,200.5C 187.821,198.952 188.821,198.285 190.5,198.5C 190.617,196.516 189.95,194.85 188.5,193.5C 189.274,192.289 190.107,192.289 191,193.5C 192.646,191.945 192.979,190.279 192,188.5C 192.414,188.957 192.914,189.291 193.5,189.5C 193.402,184.014 195.402,179.514 199.5,176C 198.062,175.781 196.729,175.281 195.5,174.5C 193.839,171.023 194.172,167.856 196.5,165C 195.484,164.481 194.818,163.647 194.5,162.5C 197.044,160.389 197.044,158.222 194.5,156C 196.513,154.209 196.513,152.875 194.5,152C 195.833,151.333 195.833,150.667 194.5,150C 195.167,149.667 195.833,149.333 196.5,149C 195.427,147.687 194.76,146.187 194.5,144.5C 195.732,142.317 195.732,140.151 194.5,138C 194.667,137.5 194.833,137 195,136.5C 195.308,137.308 195.808,137.975 196.5,138.5C 197.614,137.277 197.781,135.944 197,134.5C 196.586,134.957 196.086,135.291 195.5,135.5C 195.167,134.833 194.833,134.167 194.5,133.5C 193.087,135.368 191.92,137.368 191,139.5C 190.257,137.559 190.424,135.726 191.5,134C 178.71,131.713 166.044,132.047 153.5,135C 154.167,135.333 154.833,135.667 155.5,136C 154.333,136.5 153.5,137.333 153,138.5C 152.51,137.207 152.343,135.873 152.5,134.5C 151.167,134.5 149.833,134.5 148.5,134.5C 143.042,133.202 137.209,133.202 131,134.5C 129.833,134.333 128.667,134.167 127.5,134C 128.696,133.346 128.696,132.846 127.5,132.5C 119.636,133.152 111.803,133.818 104,134.5C 102.961,133.756 102.461,132.756 102.5,131.5 Z"/></g>
<g><path style="opacity:1" fill="#b11112" d="M 210.5,132.5 C 207.946,131.612 205.279,131.279 202.5,131.5C 169.167,131.5 135.833,131.5 102.5,131.5C 82.8333,131.5 63.1667,131.5 43.5,131.5C 42.5023,156.328 42.169,181.328 42.5,206.5C 43.9778,206.238 45.3112,206.571 46.5,207.5C 45.9747,208.192 45.3081,208.692 44.5,209C 46.7695,209.758 48.9361,209.591 51,208.5C 51.8333,210.5 52.6667,212.5 53.5,214.5C 54.6951,212.703 56.3618,211.703 58.5,211.5C 56.9565,213.928 55.9565,216.594 55.5,219.5C 55.5,219.833 55.5,220.167 55.5,220.5C 53.3763,221.031 51.8763,222.365 51,224.5C 49.8644,227.096 49.031,229.763 48.5,232.5C 46.8639,233.749 45.6972,235.416 45,237.5C 44.2938,241.887 44.4604,246.22 45.5,250.5C 45.1854,252.226 45.0187,253.893 45,255.5C 49.966,258.539 55.1327,259.206 60.5,257.5C 61.1667,257.5 61.8333,257.5 62.5,257.5C 63.1667,257.5 63.8333,257.5 64.5,257.5C 61.3134,260.925 57.3134,262.259 52.5,261.5C 48.551,262.638 45.551,264.971 43.5,268.5C 42.6429,278.573 42.3096,288.573 42.5,298.5C 41.501,242.669 41.1677,186.669 41.5,130.5C 98.1765,129.837 154.51,130.504 210.5,132.5 Z"/></g>
<g><path style="opacity:1" fill="#bd0b0b" d="M 210.5,291.5 C 210.958,294.394 210.291,296.894 208.5,299C 152.998,299.832 97.6652,299.665 42.5,298.5C 42.3096,288.573 42.6429,278.573 43.5,268.5C 45.551,264.971 48.551,262.638 52.5,261.5C 51.3586,263.451 51.3586,265.451 52.5,267.5C 51.3121,266.316 50.1455,266.316 49,267.5C 48.3333,269.5 48.3333,271.5 49,273.5C 49.8893,272.112 50.3893,272.278 50.5,274C 49.9777,274.95 49.311,275.784 48.5,276.5C 49.7178,277.803 49.3845,278.803 47.5,279.5C 49.1511,281.402 49.4845,283.402 48.5,285.5C 51.5164,294.806 57.8497,298.139 67.5,295.5C 67.5,296.5 67.5,297.5 67.5,298.5C 76.5,298.5 85.5,298.5 94.5,298.5C 110.801,299.118 126.967,298.452 143,296.5C 143.772,296.645 144.439,296.978 145,297.5C 149.166,295.646 153.332,294.979 157.5,295.5C 160.397,295.319 163.23,295.652 166,296.5C 167.338,295.494 168.671,294.494 170,293.5C 170.667,292.833 170.667,292.167 170,291.5C 168.089,291.745 166.089,291.745 164,291.5C 163.5,290.5 163,289.5 162.5,288.5C 163.145,287.268 163.311,285.935 163,284.5C 164,285.833 165,285.833 166,284.5C 166.617,285.449 166.451,286.282 165.5,287C 167.305,287.972 168.972,289.139 170.5,290.5C 172.323,289.509 173.823,288.176 175,286.5C 175.249,287.624 175.749,288.624 176.5,289.5C 177.791,287.903 179.291,286.57 181,285.5C 182.285,285.95 183.452,286.617 184.5,287.5C 184.296,286.471 184.796,285.471 186,284.5C 186.667,287.167 187.333,287.167 188,284.5C 188.725,286.158 189.892,286.658 191.5,286C 190.614,284.783 189.614,283.449 188.5,282C 190.723,281.348 191.89,279.848 192,277.5C 192.816,278.823 193.983,279.489 195.5,279.5C 197.129,278.375 198.629,277.041 200,275.5C 200.333,276.833 200.667,278.167 201,279.5C 201.333,277.5 201.667,275.5 202,273.5C 202.453,277.894 203.619,282.061 205.5,286C 204.346,286.914 204.513,287.747 206,288.5C 206.5,287 207,285.5 207.5,284C 205.978,279.364 204.978,274.531 204.5,269.5C 203.833,270.5 203.167,271.5 202.5,272.5C 201.289,270.578 199.956,268.745 198.5,267C 201.459,265.954 202.126,264.121 200.5,261.5C 201.822,261.33 202.989,261.663 204,262.5C 204.308,261.692 204.808,261.025 205.5,260.5C 206.205,262.672 207.205,264.672 208.5,266.5C 209.167,274.99 209.833,283.324 210.5,291.5 Z"/></g>
<g><path style="opacity:1" fill="#c30a0a" d="M 145.5,261.5 C 148.974,262.156 151.641,263.49 153.5,265.5C 154.768,264.572 156.101,264.405 157.5,265C 158.226,266.397 159.393,267.231 161,267.5C 162.911,266.593 164.744,266.593 166.5,267.5C 168.508,263.892 171.008,263.558 174,266.5C 175.066,264.901 176.566,263.901 178.5,263.5C 179.598,264.615 180.765,264.615 182,263.5C 184.487,265.291 186.987,264.791 189.5,262C 190.5,261.333 191.5,261.333 192.5,262C 190.996,263.337 189.996,265.004 189.5,267C 190.711,268.113 190.711,269.28 189.5,270.5C 189.808,271.308 190.308,271.975 191,272.5C 193.042,271.715 195.042,272.048 197,273.5C 196.848,275.519 196.348,277.519 195.5,279.5C 193.983,279.489 192.816,278.823 192,277.5C 191.89,279.848 190.723,281.348 188.5,282C 189.614,283.449 190.614,284.783 191.5,286C 189.892,286.658 188.725,286.158 188,284.5C 187.333,287.167 186.667,287.167 186,284.5C 184.796,285.471 184.296,286.471 184.5,287.5C 183.452,286.617 182.285,285.95 181,285.5C 179.291,286.57 177.791,287.903 176.5,289.5C 175.749,288.624 175.249,287.624 175,286.5C 173.823,288.176 172.323,289.509 170.5,290.5C 168.972,289.139 167.305,287.972 165.5,287C 166.451,286.282 166.617,285.449 166,284.5C 165,285.833 164,285.833 163,284.5C 163.311,285.935 163.145,287.268 162.5,288.5C 163,289.5 163.5,290.5 164,291.5C 166.089,291.745 168.089,291.745 170,291.5C 170.667,292.167 170.667,292.833 170,293.5C 168.671,294.494 167.338,295.494 166,296.5C 163.23,295.652 160.397,295.319 157.5,295.5C 160.633,292.935 161.133,289.935 159,286.5C 157.542,287.747 156.042,287.747 154.5,286.5C 153.808,287.025 153.308,287.692 153,288.5C 152.08,286.368 150.913,284.368 149.5,282.5C 149.167,282.667 148.833,282.833 148.5,283C 149.696,284.834 150.529,286.667 151,288.5C 149.667,287.833 148.667,286.833 148,285.5C 147.333,286.833 146.667,286.833 146,285.5C 145.804,287.904 144.638,289.571 142.5,290.5C 140.654,287.971 138.821,284.971 137,281.5C 136.081,284.402 135.248,284.735 134.5,282.5C 134.736,281.284 134.736,280.117 134.5,279C 133.5,278.667 132.5,278.333 131.5,278C 134.951,276.513 135.617,274.513 133.5,272C 136.2,271.747 138.867,271.747 141.5,272C 143.021,268.983 142.021,267.15 138.5,266.5C 139.025,265.808 139.692,265.308 140.5,265C 139.137,262.871 139.471,262.371 141.5,263.5C 142.251,264.376 142.751,265.376 143,266.5C 144.098,265.033 145.598,264.199 147.5,264C 146.244,263.583 145.577,262.75 145.5,261.5 Z"/></g>
<g><path style="opacity:1" fill="#c0090a" d="M 134.5,282.5 C 135.248,284.735 136.081,284.402 137,281.5C 138.821,284.971 140.654,287.971 142.5,290.5C 144.638,289.571 145.804,287.904 146,285.5C 146.667,286.833 147.333,286.833 148,285.5C 148.667,286.833 149.667,287.833 151,288.5C 150.529,286.667 149.696,284.834 148.5,283C 148.833,282.833 149.167,282.667 149.5,282.5C 150.913,284.368 152.08,286.368 153,288.5C 153.308,287.692 153.808,287.025 154.5,286.5C 156.042,287.747 157.542,287.747 159,286.5C 161.133,289.935 160.633,292.935 157.5,295.5C 153.332,294.979 149.166,295.646 145,297.5C 144.439,296.978 143.772,296.645 143,296.5C 126.967,298.452 110.801,299.118 94.5,298.5C 95.6843,297.312 95.6843,296.145 94.5,295C 99.0509,294.957 103.718,295.124 108.5,295.5C 111.201,295.024 111.701,294.024 110,292.5C 105.257,292.888 100.757,293.221 96.5,293.5C 95.8869,292.02 95.5536,290.687 95.5,289.5C 93.439,293.166 90.939,293.832 88,291.5C 87.1667,291.833 86.3333,292.167 85.5,292.5C 86.1667,292.833 86.8333,293.167 87.5,293.5C 84.5878,296.538 83.5878,296.204 84.5,292.5C 83.4825,291.148 82.1492,290.148 80.5,289.5C 80.8333,288.833 81.1667,288.167 81.5,287.5C 80.3881,286.735 79.7214,285.735 79.5,284.5C 81.0936,284.92 82.5936,285.586 84,286.5C 86.4209,285.526 88.9209,284.86 91.5,284.5C 94.9431,284.721 95.2764,285.721 92.5,287.5C 92.8333,287.833 93.1667,288.167 93.5,288.5C 95.061,287.653 96.561,287.986 98,289.5C 98.7412,288.359 99.5745,288.359 100.5,289.5C 101.429,288.311 101.762,286.978 101.5,285.5C 104.348,284.343 106.848,284.676 109,286.5C 113.27,284.572 114.77,285.739 113.5,290C 116.397,291.772 119.397,291.772 122.5,290C 120.519,289.395 120.185,288.395 121.5,287C 120.328,286.581 119.328,285.915 118.5,285C 119.667,284.5 120.5,283.667 121,282.5C 121.333,283.167 121.667,283.833 122,284.5C 122.595,283.101 122.428,281.768 121.5,280.5C 122,279.5 122.5,278.5 123,277.5C 124.487,278.253 124.654,279.086 123.5,280C 126.028,280.514 128.195,281.68 130,283.5C 131.226,281.452 132.726,281.119 134.5,282.5 Z"/></g>
<g><path style="opacity:0.929" fill="#b6b5b6" d="M 254.5,293.5 C 254.5,292.5 254.5,291.5 254.5,290.5C 255.568,289.566 256.901,289.232 258.5,289.5C 258.5,291.167 258.5,292.833 258.5,294.5C 256.901,294.768 255.568,294.434 254.5,293.5 Z"/></g>
<g><path style="opacity:0.996" fill="#d0d0d0" d="M 338.5,289.5 C 343.214,289.173 347.88,289.507 352.5,290.5C 349.681,295.468 346.847,300.468 344,305.5C 342.116,307.576 339.949,307.91 337.5,306.5C 339.708,302.583 342.041,298.75 344.5,295C 343.956,294.283 343.289,293.783 342.5,293.5C 341.167,293.5 339.833,293.5 338.5,293.5C 338.5,292.167 338.5,290.833 338.5,289.5 Z"/></g>
<g><path style="opacity:0.977" fill="#d7d6d7" d="M 335.5,289.5 C 335.5,295.5 335.5,301.5 335.5,307.5C 334.167,307.5 332.833,307.5 331.5,307.5C 331.5,303.833 331.5,300.167 331.5,296.5C 330.194,295.533 329.527,294.199 329.5,292.5C 331.181,290.992 333.181,289.992 335.5,289.5 Z"/></g>
<g><path style="opacity:1" fill="#c0090b" d="M 52.5,267.5 C 52.458,269.146 52.458,270.812 52.5,272.5C 53.4415,272.489 54.1081,272.989 54.5,274C 53.3706,277.329 52.3706,280.663 51.5,284C 52.7441,284.456 53.5774,283.956 54,282.5C 54.3333,283.167 54.6667,283.833 55,284.5C 57.0902,283.209 58.4236,283.876 59,286.5C 59.3333,286.167 59.6667,285.833 60,285.5C 63.0747,288.059 66.0747,288.059 69,285.5C 69.1953,287.207 69.1953,288.874 69,290.5C 70.6255,290.146 72.4588,290.146 74.5,290.5C 74.366,288.708 74.6993,287.042 75.5,285.5C 76.1556,284.722 76.9889,284.056 78,283.5C 78.7648,283.57 79.2648,283.903 79.5,284.5C 79.7214,285.735 80.3881,286.735 81.5,287.5C 81.1667,288.167 80.8333,288.833 80.5,289.5C 82.1492,290.148 83.4825,291.148 84.5,292.5C 83.5878,296.204 84.5878,296.538 87.5,293.5C 86.8333,293.167 86.1667,292.833 85.5,292.5C 86.3333,292.167 87.1667,291.833 88,291.5C 90.939,293.832 93.439,293.166 95.5,289.5C 95.5536,290.687 95.8869,292.02 96.5,293.5C 100.757,293.221 105.257,292.888 110,292.5C 111.701,294.024 111.201,295.024 108.5,295.5C 103.718,295.124 99.0509,294.957 94.5,295C 95.6843,296.145 95.6843,297.312 94.5,298.5C 85.5,298.5 76.5,298.5 67.5,298.5C 67.5,297.5 67.5,296.5 67.5,295.5C 57.8497,298.139 51.5164,294.806 48.5,285.5C 49.4845,283.402 49.1511,281.402 47.5,279.5C 49.3845,278.803 49.7178,277.803 48.5,276.5C 49.311,275.784 49.9777,274.95 50.5,274C 50.3893,272.278 49.8893,272.112 49,273.5C 48.3333,271.5 48.3333,269.5 49,267.5C 50.1455,266.316 51.3121,266.316 52.5,267.5 Z"/></g>
<g><path style="opacity:0.122" fill="#444447" d="M 252.5,290.5 C 253.167,290.5 253.833,290.5 254.5,290.5C 254.5,291.5 254.5,292.5 254.5,293.5C 251.72,294.078 249.053,294.745 246.5,295.5C 245.957,295.44 245.624,295.107 245.5,294.5C 247.743,293.526 250.076,293.192 252.5,293.5C 252.5,292.5 252.5,291.5 252.5,290.5 Z"/></g>
<g><path style="opacity:0.972" fill="#cacacb" d="M 313.5,293.5 C 313.5,295.167 313.5,296.833 313.5,298.5C 312.375,300.129 311.041,301.629 309.5,303C 311.134,303.494 312.801,303.66 314.5,303.5C 314.5,304.833 314.5,306.167 314.5,307.5C 309.786,307.827 305.12,307.493 300.5,306.5C 302.817,303.683 305.317,301.016 308,298.5C 308.917,293.529 307.751,292.695 304.5,296C 301.333,296.833 300.167,295.667 301,292.5C 303.995,289.735 307.495,288.902 311.5,290C 312.823,290.816 313.489,291.983 313.5,293.5 Z"/></g>
<g><path style="opacity:0.008" fill="#232323" d="M 338.5,289.5 C 338.5,290.833 338.5,292.167 338.5,293.5C 339.833,293.5 341.167,293.5 342.5,293.5C 340.735,294.461 338.735,294.795 336.5,294.5C 336.5,294.167 336.5,293.833 336.5,293.5C 337.167,292.167 337.833,290.833 338.5,289.5 Z"/></g>
<g><path style="opacity:0.943" fill="#d8d8d8" d="M 327.5,292.5 C 328.299,295.43 328.632,298.43 328.5,301.5C 327.885,305.448 325.552,307.782 321.5,308.5C 318.898,307.566 316.898,305.899 315.5,303.5C 315.5,300.167 315.5,296.833 315.5,293.5C 317.714,289.748 321.047,288.581 325.5,290C 326.381,290.708 327.047,291.542 327.5,292.5 Z M 319.5,301.5 C 319.448,299.097 319.781,296.764 320.5,294.5C 321.209,293.596 322.209,293.263 323.5,293.5C 324.329,296.469 324.495,299.469 324,302.5C 322.085,303.916 320.585,303.582 319.5,301.5 Z"/></g>
<g><path style="opacity:0.907" fill="#e2e3e2" d="M 286.5,296.5 C 291.532,296.332 291.699,297.332 287,299.5C 286.22,301.387 286.387,303.054 287.5,304.5C 287.5,305.5 287.5,306.5 287.5,307.5C 285.973,307.573 284.973,306.906 284.5,305.5C 283.286,302.871 283.286,300.204 284.5,297.5C 284.842,296.662 285.508,296.328 286.5,296.5 Z"/></g>
<g><path style="opacity:0.182" fill="#616162" d="M 320.5,294.5 C 319.781,296.764 319.448,299.097 319.5,301.5C 318.853,300.726 318.52,299.726 318.5,298.5C 318.34,296.645 319.007,295.312 320.5,294.5 Z"/></g>
<g><path style="opacity:0.449" fill="#737272" d="M 327.5,292.5 C 328.167,292.5 328.833,292.5 329.5,292.5C 329.527,294.199 330.194,295.533 331.5,296.5C 329.972,297.802 328.972,299.469 328.5,301.5C 328.632,298.43 328.299,295.43 327.5,292.5 Z"/></g>
<g><path style="opacity:0.38" fill="#6a6b6b" d="M 335.5,289.5 C 336.434,290.568 336.768,291.901 336.5,293.5C 336.5,293.833 336.5,294.167 336.5,294.5C 336.414,295.496 336.748,296.329 337.5,297C 336.865,300.603 336.198,304.103 335.5,307.5C 335.5,301.5 335.5,295.5 335.5,289.5 Z"/></g>
<g><path style="opacity:0.698" fill="#8d8d8f" d="M 313.5,293.5 C 314.167,293.5 314.833,293.5 315.5,293.5C 315.5,296.833 315.5,300.167 315.5,303.5C 315.167,303.5 314.833,303.5 314.5,303.5C 314.784,301.585 314.451,299.919 313.5,298.5C 313.5,296.833 313.5,295.167 313.5,293.5 Z"/></g>
<g><path style="opacity:0.967" fill="#c3c3c4" d="M 272.5,299.5 C 272.5,301.833 272.5,304.167 272.5,306.5C 271.432,307.434 270.099,307.768 268.5,307.5C 268.5,304.833 268.5,302.167 268.5,299.5C 267.5,299.5 266.5,299.5 265.5,299.5C 265.663,301.857 265.497,304.19 265,306.5C 263.644,307.38 262.144,307.714 260.5,307.5C 260.177,303.774 260.511,300.107 261.5,296.5C 263.858,295.831 266.525,295.664 269.5,296C 271.426,296.422 272.426,297.589 272.5,299.5 Z"/></g>
<g><path style="opacity:0.478" fill="#767575" d="M 282.5,297.5 C 283.167,297.5 283.833,297.5 284.5,297.5C 283.286,300.204 283.286,302.871 284.5,305.5C 283.833,305.833 283.167,306.167 282.5,306.5C 282.672,305.508 282.338,304.842 281.5,304.5C 282.833,302.833 282.833,301.167 281.5,299.5C 282.338,299.158 282.672,298.492 282.5,297.5 Z"/></g>
<g><path style="opacity:0.898" fill="#b8b7b8" d="M 286.5,296.5 C 291.309,294.771 293.976,296.604 294.5,302C 294.151,306.808 291.818,308.641 287.5,307.5C 287.5,306.5 287.5,305.5 287.5,304.5C 286.387,303.054 286.22,301.387 287,299.5C 291.699,297.332 291.532,296.332 286.5,296.5 Z M 287.5,304.5 C 288.799,302.901 290.465,302.401 292.5,303C 290.975,304.009 289.308,304.509 287.5,304.5 Z"/></g>
<g><path style="opacity:0.612" fill="#8d8d8e" d="M 245.5,303.5 C 244.167,303.5 242.833,303.5 241.5,303.5C 241.5,304.5 241.5,305.5 241.5,306.5C 240.566,305.432 240.232,304.099 240.5,302.5C 242.415,302.216 244.081,302.549 245.5,303.5 Z"/></g>
<g><path style="opacity:0.972" fill="#c9c9ca" d="M 252.5,290.5 C 252.5,291.5 252.5,292.5 252.5,293.5C 250.076,293.192 247.743,293.526 245.5,294.5C 245.624,295.107 245.957,295.44 246.5,295.5C 249.198,295.845 251.198,297.178 252.5,299.5C 253.833,301.167 253.833,302.833 252.5,304.5C 251.758,307.138 249.925,308.471 247,308.5C 244.889,308.299 243.055,307.633 241.5,306.5C 241.5,305.5 241.5,304.5 241.5,303.5C 242.833,303.5 244.167,303.5 245.5,303.5C 246.675,303.719 247.675,303.386 248.5,302.5C 246.462,300.724 244.296,299.057 242,297.5C 240.751,292.671 242.584,289.671 247.5,288.5C 249.336,289.028 251.003,289.694 252.5,290.5 Z"/></g>
<g><path style="opacity:0.094" fill="#454446" d="M 254.5,296.5 C 254.5,299.833 254.5,303.167 254.5,306.5C 253.833,305.833 253.167,305.167 252.5,304.5C 253.833,302.833 253.833,301.167 252.5,299.5C 253.167,298.5 253.833,297.5 254.5,296.5 Z"/></g>
<g><path style="opacity:0.275" fill="#707072" d="M 274.5,298.5 C 274.5,300.5 274.5,302.5 274.5,304.5C 273.833,305.167 273.167,305.833 272.5,306.5C 272.5,304.167 272.5,301.833 272.5,299.5C 273.167,299.167 273.833,298.833 274.5,298.5 Z"/></g>
<g><path style="opacity:0.902" fill="#c1c0c1" d="M 254.5,306.5 C 254.5,303.167 254.5,299.833 254.5,296.5C 255.313,295.347 256.313,295.347 257.5,296.5C 258.657,299.784 258.824,303.118 258,306.5C 256.708,307.791 255.542,307.791 254.5,306.5 Z"/></g>
<g><path style="opacity:0.918" fill="#d0d0d2" d="M 282.5,297.5 C 282.672,298.492 282.338,299.158 281.5,299.5C 280.5,299.5 279.5,299.5 278.5,299.5C 278.5,301.167 278.5,302.833 278.5,304.5C 279.5,304.5 280.5,304.5 281.5,304.5C 282.338,304.842 282.672,305.508 282.5,306.5C 282.134,307.695 281.301,308.361 280,308.5C 278.5,308 277,307.5 275.5,307C 274.748,306.329 274.414,305.496 274.5,304.5C 274.5,302.5 274.5,300.5 274.5,298.5C 276.956,295.206 279.623,294.873 282.5,297.5 Z"/></g>
</svg>
